<svg width="63" height="67" viewBox="0 0 63 67" fill="none" xmlns="http://www.w3.org/2000/svg">
<path d="M61.0584 65.7961C61.0266 65.7961 60.9937 65.7961 60.959 65.7961L60.3873 65.7672C59.8455 65.7394 59.2858 65.7105 58.742 65.7065H58.7132C58.4706 65.7065 58.2161 65.7254 57.9586 65.7443C57.7012 65.7632 57.395 65.7861 57.1017 65.7861H57.048C56.5211 65.7861 55.9903 65.7622 55.4763 65.7443C54.9355 65.7244 54.3758 65.7045 53.83 65.7025C52.468 65.6956 51.0723 65.6916 49.6805 65.6916C48.3881 65.6916 47.056 65.6916 45.7318 65.7006C45.2914 65.7006 44.8371 65.7224 44.3986 65.7423C43.9205 65.7632 43.4264 65.7841 42.9323 65.7841H42.8905C42.2682 65.7841 41.6419 65.7622 41.0355 65.7423C40.4837 65.7234 39.9131 65.7045 39.3564 65.7015C38.569 65.6956 37.7449 65.6926 36.9068 65.6926C35.8033 65.6926 34.667 65.6926 33.4273 65.7065C33.0078 65.7065 32.5764 65.7284 32.1578 65.7463C31.6836 65.7662 31.1925 65.7871 30.7024 65.7871H30.603C29.3106 65.7802 28.0014 65.7623 26.7328 65.7453C25.4076 65.7284 24.0377 65.7095 22.6917 65.7035C21.4987 65.6976 20.2063 65.6946 18.6386 65.6946H15.6562H13.0784H8.06096H2.16474C1.72633 65.6946 1.27897 65.6468 0.97178 65.2965C0.641726 64.9292 0.660615 64.4456 0.709328 63.9808C0.75804 63.516 0.75804 63.0483 0.760028 62.5497C0.760028 62.3287 0.760028 62.1078 0.765993 61.8869C0.765993 61.7087 0.773946 61.5306 0.778917 61.3524C0.789852 60.9334 0.800788 60.5005 0.801782 60.0786C0.801782 58.3927 0.801782 56.7074 0.801782 55.0228V49.782C0.801782 47.1666 0.801782 44.5511 0.801782 41.9357C0.801782 41.1435 0.801782 40.3506 0.801782 39.5571C0.795817 37.8384 0.789852 36.0599 0.812717 34.3083L0.821666 33.4942C0.83956 31.7964 0.858448 30.0398 1.02646 28.3121C1.43333 24.1449 2.72833 20.1135 4.82406 16.4899C6.84206 12.9523 9.563 9.86626 12.8189 7.42246C14.16 6.41629 15.6432 5.5206 16.9515 4.73537C18.6644 3.70133 20.5473 3.09724 22.3696 2.51304L23.0456 2.29509C24.844 1.71089 26.6871 1.48896 28.0918 1.36058C29.2251 1.26105 30.3883 1.20532 31.5474 1.20532C32.1181 1.20532 32.6967 1.21826 33.2673 1.24314C36.3391 1.37389 39.3712 1.98783 42.2523 3.0624C45.5798 4.31076 48.6722 6.11403 51.3983 8.39579C54.3867 10.8838 56.8661 13.963 58.7679 17.5429C60.101 20.0508 61.0275 22.7459 61.6022 25.7793C61.9501 27.6195 62.1171 29.1312 62.1271 30.5374C62.137 31.9135 62.1476 33.2899 62.1589 34.6666C62.1807 37.3358 62.2026 40.0945 62.2136 42.8095C62.2225 45.3533 62.2205 47.9389 62.2136 50.4388C62.2136 51.651 62.2136 52.8635 62.2136 54.0764C62.2136 54.1709 62.2136 54.2704 62.2235 54.3749C62.2235 54.4287 62.2235 54.4824 62.2305 54.5362V54.5611V57.6841C62.2371 57.9561 62.2447 58.2278 62.2533 58.4991C62.2722 59.1122 62.2911 59.7471 62.2881 60.3771C62.2881 61.1524 62.2633 61.9376 62.2424 62.696C62.2311 63.0901 62.2212 63.4839 62.2126 63.8773V63.9848C62.204 64.1507 62.2069 64.3169 62.2215 64.4824C62.2692 64.8725 62.1857 65.193 61.971 65.4358C61.7563 65.6786 61.4501 65.7961 61.0584 65.7961Z" fill="#F7F7F7"/>
<path d="M31.5475 1.8943C32.1122 1.8943 32.6755 1.90658 33.2376 1.93113C36.235 2.05807 39.1938 2.65724 42.0048 3.7066C45.2608 4.92579 48.2863 6.68987 50.9521 8.92354C53.9494 11.4205 56.3204 14.4191 58.1526 17.8616C59.4996 20.3974 60.3834 23.0805 60.9173 25.902C61.2086 27.4386 61.4144 28.9722 61.4303 30.5347C61.4591 34.6241 61.5008 38.7145 61.5168 42.8048C61.5307 46.5598 61.5168 50.3137 61.5168 54.0687C61.5168 54.2309 61.5277 54.3932 61.5336 54.5554V57.6863C61.5545 58.582 61.5963 59.4777 61.5913 60.3665C61.5853 61.5299 61.5406 62.6933 61.5168 63.8557C61.503 64.0922 61.5066 64.3293 61.5277 64.5653C61.5774 64.9634 61.3925 65.0997 61.0565 65.0997H60.9928C60.2443 65.0649 59.5016 65.0141 58.7481 65.0092H58.7143C58.1774 65.0092 57.6396 65.0888 57.1028 65.0888H57.0551C55.9814 65.0788 54.9087 65.0102 53.8351 65.0052C52.4532 64.9979 51.0714 64.9942 49.6895 64.9942C48.3693 64.9942 47.0491 64.9972 45.7289 65.0032C44.7974 65.0032 43.8649 65.0868 42.9324 65.0868H42.8936C41.7165 65.0868 40.5395 65.0121 39.3624 65.0042C38.5466 64.9982 37.7304 64.9952 36.9139 64.9952C35.7521 64.9952 34.5899 64.9999 33.4274 65.0092C32.5208 65.0161 31.6131 65.0898 30.7075 65.0898H30.615C27.9776 65.0748 25.3401 65.0191 22.7027 65.0062C21.352 64.9989 20.0013 64.9959 18.6506 64.9972C16.7949 64.9972 14.9418 64.9972 13.0914 64.9972C9.45351 64.9972 5.8153 64.9992 2.17676 65.0032C1.4252 65.0032 1.32976 64.831 1.40929 64.0627C1.48285 63.3511 1.45402 62.6286 1.46993 61.911C1.48285 61.304 1.50473 60.6969 1.50572 60.0888C1.5097 57.7733 1.5097 55.4574 1.50572 53.1412C1.50572 49.4051 1.50572 45.6691 1.50572 41.933C1.50572 39.3942 1.47888 36.8574 1.51168 34.3146C1.53654 32.3341 1.53057 30.3447 1.72145 28.3771C2.11478 24.3075 3.37807 20.3702 5.4256 16.8326C7.39361 13.3753 10.051 10.3604 13.2325 7.9751C14.5249 7.00476 15.9167 6.16081 17.3085 5.32283C19.1576 4.20719 21.2214 3.61006 23.2594 2.94824C24.85 2.43073 26.5043 2.19585 28.1525 2.04558C29.2779 1.94605 30.4122 1.89331 31.5455 1.89331M31.5455 0.5C30.3645 0.5 29.1815 0.552746 28.0273 0.65824C26.5858 0.789609 24.6939 1.01751 22.8289 1.6236L22.1549 1.84056C20.2959 2.43769 18.3722 3.05473 16.5878 4.12957C15.2666 4.92574 13.7674 5.83139 12.3975 6.85945C9.06908 9.36287 6.28859 12.5227 4.22767 16.1439C2.08647 19.8538 0.764404 23.9801 0.350534 28.2447C0.179543 30.0023 0.160655 31.7738 0.14276 33.4866L0.133813 34.2997C0.110948 36.0562 0.116913 37.8377 0.122878 39.5594C0.122878 40.3386 0.122878 41.1448 0.122878 41.937C0.122878 44.5332 0.122878 47.13 0.122878 49.7276V55.043C0.122878 56.6971 0.122878 58.4079 0.122878 60.0898C0.122878 60.5028 0.110947 60.9138 0.100012 61.3478C0.100012 61.5259 0.0910654 61.705 0.0870888 61.8832C0.0870888 62.1131 0.0811228 62.34 0.0811228 62.5599C0.0811228 63.0406 0.0811232 63.4944 0.0334046 63.9214C-0.0143139 64.3483 -0.0938444 65.1475 0.471819 65.7745C1.03748 66.4015 1.84075 66.3995 2.18571 66.3995H8.01035H13.1003H15.6791H18.6615C20.2283 66.3995 21.5137 66.3995 22.7067 66.4084C24.0497 66.4144 25.4177 66.4333 26.7399 66.4502C28.0104 66.4672 29.3246 66.4851 30.617 66.492H30.7164C31.2214 66.492 31.7195 66.4711 32.2017 66.4502C32.6321 66.4323 33.0397 66.4144 33.4463 66.4114C34.683 66.4025 35.8203 66.3975 36.9258 66.3975C37.7599 66.3975 38.581 66.3975 39.3644 66.4064C39.9122 66.4064 40.4778 66.4283 41.0246 66.4463C41.636 66.4672 42.2693 66.4881 42.9016 66.4891H42.9443C43.4533 66.4891 43.9553 66.4672 44.4415 66.4463C44.8938 66.4264 45.3213 66.4074 45.7478 66.4054C47.0749 66.3995 48.4051 66.3965 49.7014 66.3965C51.0932 66.3965 52.485 66.3965 53.84 66.4074C54.3749 66.4074 54.9038 66.4283 55.4645 66.4482C55.9824 66.4672 56.5182 66.4861 57.0551 66.491H57.1157C57.4348 66.491 57.7341 66.4692 58.0234 66.4473C58.2739 66.4293 58.5105 66.4114 58.7282 66.4114H58.7521C59.2789 66.4114 59.8058 66.4423 60.3635 66.4711L60.9411 66.5H61.0714C61.819 66.5 62.2643 66.1746 62.5049 65.9029C62.7455 65.6312 63.0159 65.1455 62.9244 64.4021C62.9165 64.2695 62.9165 64.1366 62.9244 64.004V63.8925C62.9334 63.5014 62.9433 63.0963 62.9543 62.7142C62.9742 61.9518 62.996 61.1636 63 60.3814C63 59.7375 62.9841 59.0966 62.9652 58.4765C62.9573 58.2111 62.9496 57.9458 62.9423 57.6804V56.9051V54.5534V54.5046C62.9423 54.4479 62.9423 54.3922 62.9354 54.3364C62.9354 54.2369 62.9264 54.1473 62.9264 54.0687C62.9264 52.8499 62.9264 51.6304 62.9264 50.4103C62.9264 47.9163 62.9314 45.3347 62.9264 42.7998C62.9155 40.0849 62.8936 37.3261 62.8718 34.6599C62.8612 33.2819 62.8506 31.9035 62.8399 30.5248C62.83 29.0748 62.659 27.5232 62.3031 25.6422C61.7156 22.5382 60.7652 19.7794 59.3992 17.2078C57.4557 13.5483 54.9187 10.4004 51.8607 7.85269C49.0748 5.52155 45.9154 3.67864 42.5158 2.40187C39.5666 1.30164 36.4626 0.673256 33.3181 0.539808C32.7365 0.513932 32.148 0.500995 31.5674 0.500995L31.5455 0.5Z" fill="white"/>
<path d="M18.773 42.269C18.7551 42.6034 18.7441 42.9397 18.7163 43.2741C18.6739 43.7916 18.6245 44.3082 18.5682 44.8237C18.5304 45.165 18.2988 45.2218 18.0025 45.2138C17.7317 45.1893 17.4589 45.1983 17.1903 45.2407C16.7042 45.3462 16.5938 45.2944 16.6644 44.8307C16.9169 43.2502 17.0909 41.6669 17.0402 40.0616C17.0173 39.3151 17.0402 38.5687 17.0402 37.7437C17.749 37.6442 18.5026 37.5616 19.2462 37.4212C20.0703 37.264 20.8845 37.058 21.7007 36.8639C22.2365 36.7365 22.496 36.8828 22.7515 37.3745C23.0497 37.9547 23.4196 38.4981 23.7158 39.0793C24.364 40.3532 25.3969 41.2867 26.4318 42.2212C26.6724 42.4381 26.5571 42.5785 26.3423 42.676C25.9447 42.8541 25.5361 42.9965 25.1424 43.1736C24.9005 43.3043 24.6662 43.4485 24.4405 43.6055C23.9296 42.7666 23.3997 41.8997 22.8698 41.0319L22.7406 41.0797C23.0776 41.9754 23.4156 42.8711 23.7725 43.8106C23.1681 44.0096 22.5795 44.2216 21.983 44.3908C21.193 44.6117 20.3977 44.8107 19.5971 44.9879C19.2502 45.0655 19.1686 44.8058 19.1418 44.5162C19.0722 43.7618 18.9917 43.0084 18.9151 42.254L18.773 42.269Z" fill="#001F3F"/>
<path d="M43.3847 29.8758C43.3907 30.6667 43.397 31.4582 43.4036 32.2504C43.4036 32.2843 43.4036 32.3181 43.4036 32.35C43.4036 32.6117 43.4036 32.8744 43.4036 33.1362C43.4036 33.168 43.4036 33.1999 43.4036 33.2357C43.4036 33.38 43.4036 33.5253 43.4036 33.6706C43.3977 33.6806 43.3857 33.6915 43.3877 33.7005C43.3912 33.723 43.3972 33.745 43.4056 33.7662C43.3937 35.2023 43.4315 36.6453 42.9921 38.0366C42.835 38.5343 42.6133 39.007 42.4175 39.4897C42.3558 39.6399 42.2813 39.7882 42.2127 39.9315L42.1858 39.8868C42.0695 40.0092 42.2644 39.7872 42.2127 39.9315C41.9592 40.6372 41.1718 41.5547 40.622 42.0414C40.2453 42.3758 39.789 42.6186 39.3774 42.9152C39.1567 43.0744 38.9728 43.2894 38.7421 43.4287C38.3445 43.6696 37.8961 43.8268 37.5164 44.0945C35.714 45.3435 33.6392 46.0571 31.7136 47.0593C31.6507 47.0862 31.5831 47.1 31.5148 47.1C31.4464 47.1 31.3788 47.0862 31.3159 47.0593C30.6876 46.7518 30.0723 46.4154 29.448 46.0989C28.5791 45.657 27.7042 45.2261 26.8334 44.7862C26.6405 44.6867 26.4586 44.5703 26.1772 44.407C26.6435 44.1433 27.0501 43.9094 27.4617 43.6845C27.4892 43.6768 27.5181 43.6748 27.5464 43.6786C27.5748 43.6823 27.6021 43.6918 27.6267 43.7064C28.0552 43.9274 28.4757 44.1652 28.9081 44.3762C29.611 44.7185 30.3268 45.032 31.0266 45.3794C31.8717 45.8004 32.484 45.1604 33.1839 44.9266C33.3893 44.8454 33.5887 44.7496 33.7804 44.6399C35.1175 43.9701 36.4785 43.3461 37.7808 42.6107C38.263 42.34 38.7749 42.0683 39.1428 41.5727C39.5464 41.0233 40.0991 40.5854 40.5346 40.055C41.1788 39.2687 41.5287 38.3292 41.7832 37.3559C42.16 35.8939 42.1381 34.4051 42.0337 32.9123C42.0332 32.695 42.0495 32.4781 42.0824 32.2634V32.1519C42.0765 31.5382 42.0712 30.9245 42.0665 30.3108C42.0676 30.2921 42.0696 30.2735 42.0725 30.255C42.0725 30.2351 42.0725 30.2311 42.0785 30.1993C42.0738 29.9392 42.0692 29.6794 42.0645 29.42C42.0645 29.208 42.0437 29.0906 42.0437 28.7851V28.0884H44.6523L44.7119 27.9889C44.4137 27.7431 43.3768 26.9499 43.0855 26.711C43.2157 26.2503 39.6657 24.0638 41.4094 23.5542C42.7207 24.6858 46.8076 28.1521 48.1785 29.3364C47.5303 29.3364 46.9537 29.3305 46.3771 29.3364C45.5082 29.3484 44.6393 29.3623 43.7705 29.3971C43.6452 29.4021 43.5259 29.5245 43.4036 29.5962C43.3967 29.6887 43.3887 29.7823 43.3847 29.8758Z" fill="#001F3F"/>
<path d="M41.4012 23.556C40.9588 24.2885 40.9568 24.4198 41.7869 24.6836C42.789 25.001 43.0365 25.7474 43.0793 26.7128C42.6071 26.26 42.1398 25.8042 41.6607 25.3593C41.5245 25.2319 41.3475 25.1493 41.2043 25.0279C40.748 24.6418 40.3096 24.2377 39.8444 23.8565C39.5173 23.5858 39.1674 23.342 38.8303 23.0822C38.7488 23.0196 38.6812 22.9399 38.6047 22.8703C37.7626 22.103 36.9146 21.3376 36.0786 20.5663C35.6223 20.1473 35.1839 19.7035 34.7226 19.2974C34.2195 18.8605 33.6777 18.4674 33.1757 18.0285C32.7214 17.6304 32.2939 17.2045 31.8624 16.7815C31.6348 16.5586 31.4817 16.4889 31.1904 16.7666C30.2957 17.6195 29.3632 18.4276 28.4357 19.2427C27.4667 20.0946 26.4915 20.9399 25.5099 21.7785C24.9293 22.2761 24.317 22.7379 23.7473 23.2445C23.1777 23.751 22.6657 24.2795 22.112 24.7821C21.4946 25.3424 20.8613 25.8868 20.2311 26.4312C20.078 26.5635 19.905 26.674 19.6584 26.8551C19.559 26.3734 19.4596 25.9654 19.393 25.5524C19.3801 25.4728 19.4785 25.3533 19.557 25.2847C19.9984 24.9115 20.4597 24.5611 20.8951 24.181C21.3594 23.7749 21.7899 23.332 22.2551 22.928C23.0047 22.2781 23.7752 21.6531 24.5237 21.0032C24.8419 20.7256 25.1202 20.4061 25.4294 20.1145C26.0617 19.5174 26.683 18.8964 27.3401 18.3231C27.9724 17.7708 28.6524 17.2741 29.2946 16.7308C29.6346 16.4451 29.9308 16.1087 30.2619 15.8132C30.576 15.5315 30.9051 15.2668 31.2361 15.006C31.4986 14.8 31.7193 14.9274 31.9261 15.1195C32.3357 15.4997 32.7472 15.8759 33.1588 16.2531C33.7772 16.8203 34.3766 17.4105 35.0188 17.9449C35.661 18.4794 36.3798 18.974 37.0439 19.5094C37.3421 19.7503 37.5757 20.0707 37.866 20.3235C38.6435 21.0002 39.4477 21.6461 40.2162 22.3319C40.6367 22.716 41.0105 23.1469 41.4012 23.556Z" fill="#001F3F"/>
<path d="M18.4268 34.641C18.3125 33.8349 18.2051 33.0238 18.0789 32.2157C17.9367 31.306 17.7806 30.3974 17.6255 29.4898C17.5858 29.2569 17.4705 29.1822 17.2189 29.2479C16.7946 29.36 16.3627 29.4411 15.9266 29.4908C15.8093 29.5027 15.5568 29.3166 15.5667 29.2609C15.6164 29.0031 15.68 28.7075 15.846 28.5214C16.1668 28.1816 16.5179 27.8718 16.8949 27.5959C17.204 27.358 17.2349 27.1172 17.1513 26.736C16.9913 25.9975 16.9585 25.2322 16.8273 24.4868C16.6891 23.6996 16.4873 22.9233 16.3302 22.1391C16.2407 21.6803 16.195 21.2145 16.1314 20.7517C16.0787 20.3895 16.188 20.1078 16.5658 20.0163C16.6626 19.9941 16.7629 19.9916 16.8607 20.0089C16.9585 20.0262 17.0519 20.0629 17.1352 20.1169C17.2186 20.1709 17.2904 20.241 17.3463 20.3232C17.4021 20.4054 17.441 20.498 17.4605 20.5955C17.6116 21.312 17.7399 22.0336 17.883 22.7521C18.0401 23.5374 18.2131 24.3186 18.3622 25.1058C18.6604 26.6584 18.9338 28.2159 19.2311 29.7684C19.4577 30.9547 19.7053 32.138 19.9399 33.3233C19.9846 33.5493 20.0174 33.7772 20.0453 34.0051C20.09 34.3843 19.8246 34.447 19.5412 34.4868C19.2013 34.5355 18.8583 34.5813 18.4268 34.641Z" fill="#001F3F"/>
<path d="M16.9298 37.0523C16.9298 36.6901 16.9119 36.4552 16.9298 36.2263C16.9716 35.7675 17.1505 35.4411 17.6814 35.3774C18.8078 35.243 19.9281 35.0539 21.0545 34.9256C21.2931 34.9002 21.5334 34.9541 21.7383 35.0789C21.9433 35.2037 22.1016 35.3925 22.1888 35.6162C22.3389 35.9805 22.2415 36.2134 21.8677 36.1656C20.6857 36.2512 19.78 36.509 18.7292 36.6174C18.1546 36.6762 17.5929 36.8871 16.9298 37.0523Z" fill="#001F3F"/>
<path d="M43.3843 29.8756C43.3843 29.7821 43.3912 29.6885 43.3952 29.5959C43.3962 29.6895 43.3883 29.7821 43.3843 29.8756Z" fill="#7A773F"/>
<path d="M43.4011 32.3527C43.4011 32.3179 43.4011 32.284 43.4011 32.2532C43.4021 32.284 43.4021 32.3189 43.4011 32.3527Z" fill="#7A773F"/>
<path d="M31.0691 29.2327C31.0691 29.2655 31.0741 29.2993 31.0771 29.3322L31.0691 29.2327Z" fill="#7A773F"/>
<path d="M31.0752 30.9284C31.0752 30.8965 31.0752 30.8647 31.0752 30.8289C31.0762 30.8647 31.0762 30.8965 31.0752 30.9284Z" fill="#7A773F"/>
<path d="M43.4022 33.7662C43.3938 33.745 43.3878 33.723 43.3843 33.7005C43.3843 33.6916 43.3942 33.6806 43.4002 33.6707C43.3962 33.7025 43.4012 33.7344 43.4022 33.7662Z" fill="#7A773F"/>
<path d="M31.0425 24.2139H27.8394V27.4205H31.0425V24.2139Z" fill="#001F3F"/>
<path d="M35.0659 24.2139H31.8628V27.4205H35.0659V24.2139Z" fill="#001F3F"/>
<path d="M35.0659 28.2715H31.8628V31.4781H35.0659V28.2715Z" fill="#001F3F"/>
<path d="M31.0425 28.2715H27.8394V31.4781H31.0425V28.2715Z" fill="#001F3F"/>
<path d="M8.45966 24.859L8.94877 23.0676L10.771 23.5652L10.612 24.1454L10.0214 23.9842L10.0145 24.0091C10.0145 24.0091 10.5772 24.4708 10.3266 25.3874C10.0284 26.4573 9.10883 26.9589 8.00932 26.6573C6.9098 26.3558 6.36899 25.4571 6.67419 24.3415C6.97939 23.2258 7.83435 22.8795 8.52925 22.9611L8.34633 23.6279C8.09157 23.6274 7.84411 23.7131 7.64403 23.8709C7.44394 24.0288 7.30293 24.2496 7.24383 24.4977C7.045 25.2312 7.47845 25.8005 8.19124 25.9955C8.88714 26.1856 9.56116 25.9438 9.75999 25.2212C9.97174 24.446 9.50549 23.9902 9.27187 23.9275L8.9786 24.9973L8.45966 24.859Z" fill="#001F3F"/>
<path d="M7.70703 21.3558L8.95169 18.7444L9.45572 18.9852L8.50234 21.0055L9.3732 21.4205L10.1924 19.6958L10.6894 19.9317L9.86431 21.6544L10.8207 22.1112L11.783 20.0929L12.287 20.3338L11.0443 22.9482L7.70703 21.3558Z" fill="#001F3F"/>
<path d="M13.5515 18.4379L12.5902 19.8202L9.56006 17.7074L10.5154 16.333C10.9866 15.6572 11.5096 15.5109 12.0464 15.8891C12.1828 15.9822 12.2859 16.1166 12.3405 16.2726C12.395 16.4286 12.3982 16.598 12.3496 16.7559L12.3715 16.7719C12.5169 16.6195 12.713 16.5258 12.9227 16.5084C13.1324 16.491 13.3413 16.5511 13.5098 16.6773C14.1033 17.0913 14.1092 17.6367 13.5515 18.4379ZM10.9151 16.7022L10.3752 17.4745L11.2153 18.0607L11.7551 17.2844C11.9778 16.9639 11.9967 16.6873 11.6935 16.4763C11.3903 16.2653 11.1477 16.3688 10.9151 16.7022ZM12.2363 17.4984L11.6398 18.3563L12.5236 18.9723L13.1201 18.1144C13.4034 17.7064 13.3785 17.4178 13.0892 17.2187C12.7999 17.0197 12.5136 17.1023 12.2363 17.5014V17.4984Z" fill="#001F3F"/>
<path d="M17.1446 14.3783L16.6644 14.869L15.9337 14.5654L14.6145 15.912L14.9307 16.6375L14.4505 17.1271L12.8599 13.4667L13.4563 12.8596L17.1446 14.3783ZM13.6224 13.5981L13.6045 13.617L14.368 15.3467L15.3621 14.3316L13.6224 13.5981Z" fill="#001F3F"/>
<path d="M16.6087 13.171L15.2119 11.2164L15.7438 10.8352L17.1197 12.76C17.4607 13.2367 17.9766 13.1332 18.4011 12.8286C18.8256 12.5241 19.091 12.0683 18.75 11.5916L17.3742 9.66681L17.906 9.28564L19.3038 11.2403C19.8406 11.9916 19.4857 12.7659 18.7391 13.3014C17.9925 13.8368 17.1515 13.9224 16.6087 13.171Z" fill="#001F3F"/>
<path d="M19.0623 8.61094L20.3546 7.99887C21.4134 7.50126 22.3568 7.83865 22.84 8.86571C23.3231 9.89278 22.9911 10.8392 21.9323 11.3408L20.6399 11.9529L19.0623 8.61094ZM22.2216 9.1593C21.9055 8.49052 21.2941 8.18498 20.5972 8.5144L19.8963 8.8468L20.9899 11.1567L21.6908 10.8253C22.3876 10.4949 22.5407 9.83207 22.2216 9.1593Z" fill="#001F3F"/>
<path d="M23.2207 6.78756L26.0043 6.0083L26.1544 6.54771L24.0001 7.14484L24.2606 8.07637L26.0997 7.56184L26.2469 8.0903L24.4087 8.60981L24.694 9.6319L26.8483 9.02979L26.9994 9.5682L24.2158 10.3475L23.2207 6.78756Z" fill="#001F3F"/>
<path d="M28.2324 9.38784L27.5822 9.4595L27.1846 5.78415L28.6758 5.62093C29.6699 5.51245 30.1759 5.85481 30.2604 6.6271C30.3598 7.49891 29.6828 7.75269 29.6828 7.75269L30.7555 9.11415L30.0208 9.19377L29.0267 7.95273L28.0833 8.05225L28.2324 9.38784ZM28.7295 6.17726L27.8904 6.26982L28.0246 7.49792L28.8637 7.40636C29.3667 7.35062 29.6182 7.1267 29.5725 6.7097C29.5268 6.29271 29.2295 6.12849 28.7314 6.17726H28.7295Z" fill="#001F3F"/>
<path d="M31.4371 5.43213L34.3201 5.58042L34.2913 6.13973L32.0634 6.02926L32.0137 6.99462L33.9215 7.09415L33.8926 7.64251L31.9859 7.54299L31.9312 8.6029L34.163 8.71635L34.1342 9.27567L31.2512 9.12638L31.4371 5.43213Z" fill="#001F3F"/>
<path d="M37.7301 6.7839L36.8046 6.5958L36.2936 9.12167L37.2191 9.30977L37.1078 9.85813L34.6155 9.35256L34.7268 8.8042L35.6524 8.99229L36.1633 6.46543L35.2378 6.27733L35.3442 5.73096L37.8365 6.23653L37.7301 6.7839Z" fill="#001F3F"/>
<path d="M39.4089 7.37514L39.3791 7.36419L38.2945 10.2225L37.6831 9.99058L38.9944 6.53418L40.0004 6.91634L40.4299 10.3508L40.4597 10.3628L41.5443 7.50352L42.1557 7.7364L40.8445 11.1918L39.8384 10.8067L39.4089 7.37514Z" fill="#001F3F"/>
<path d="M45.1394 10.043L44.3233 9.56831L43.0309 11.7986L43.8481 12.2723L43.5667 12.757L41.3667 11.4791L41.648 10.9955L42.4652 11.4692L43.7576 9.23989L42.9414 8.76517L43.2218 8.28149L45.4218 9.55836L45.1394 10.043Z" fill="#001F3F"/>
<path d="M46.5449 12.6515L47.9764 13.8269L46.7765 15.2849L46.3113 14.9037L46.7 14.43L46.6791 14.4131C46.6791 14.4131 46.0289 14.7405 45.2952 14.1374C44.4383 13.4348 44.3568 12.3838 45.0785 11.502C45.8003 10.6203 46.8421 10.4899 47.7359 11.2234C48.6296 11.9569 48.5968 12.8794 48.2399 13.4815L47.705 13.0426C47.8094 12.8101 47.8323 12.5491 47.7698 12.302C47.7074 12.0548 47.5633 11.8361 47.3611 11.6812C46.7765 11.2045 46.0806 11.3697 45.6124 11.9409C45.1581 12.4963 45.1014 13.2148 45.681 13.6905C46.3003 14.2001 46.9067 13.9592 47.0608 13.7711L46.2039 13.0685L46.5449 12.6515Z" fill="#001F3F"/>
<path d="M48.2182 14.9218L50.0573 13.3762L50.4778 13.8738L48.6655 15.3995C48.2172 15.7767 48.3603 16.2833 48.6963 16.6843C49.0324 17.0854 49.5066 17.3133 49.9549 16.9361L51.7672 15.4144L52.1878 15.912L50.3496 17.4576C49.6418 18.0547 48.8435 17.7562 48.253 17.0536C47.6624 16.3509 47.5113 15.5159 48.2182 14.9218Z" fill="#001F3F"/>
<path d="M52.7417 17.9331L52.7267 17.9053L50.0694 19.415L49.7473 18.8457L52.9584 17.0205L53.4902 17.958L51.6332 20.877L51.6491 20.9049L54.3054 19.3951L54.6305 19.9624L51.4185 21.7876L50.8846 20.8581L52.7417 17.9331Z" fill="#001F3F"/>
<path d="M54.0571 23.4734L54.6536 25.23L52.8642 25.8351L52.6713 25.2638L53.2509 25.0648L53.2429 25.0399C53.2429 25.0399 52.5182 24.9732 52.215 24.0716C51.8601 23.0206 52.3472 22.0871 53.4268 21.7219C54.5065 21.3566 55.4579 21.7995 55.8277 22.8952C56.1975 23.991 55.6815 24.7573 55.0602 25.0787L54.8385 24.4229C55.0503 24.2811 55.208 24.0718 55.286 23.829C55.364 23.5862 55.3576 23.3241 55.268 23.0853C55.0244 22.3638 54.3464 22.1359 53.6465 22.3727C52.9665 22.6026 52.5381 23.1818 52.7777 23.8924C53.0342 24.6538 53.6724 24.7712 53.906 24.6936L53.5471 23.6446L54.0571 23.4734Z" fill="#001F3F"/>
<path d="M40.9371 22.5995C40.8909 22.6005 40.8458 22.5854 40.8095 22.5567C40.7732 22.528 40.748 22.4875 40.7383 22.4423C40.5723 21.666 40.2591 20.9873 39.9003 20.628C39.5414 20.2687 38.8644 19.9552 38.0889 19.79C38.044 19.7809 38.0036 19.7565 37.9746 19.7209C37.9455 19.6854 37.9297 19.6409 37.9297 19.595C37.9297 19.549 37.9455 19.5045 37.9746 19.469C38.0036 19.4334 38.044 19.409 38.0889 19.3999C38.8644 19.2337 39.5414 18.9202 39.9003 18.5609C40.2591 18.2016 40.5723 17.5239 40.7383 16.7476C40.748 16.7024 40.7732 16.6619 40.8095 16.6332C40.8458 16.6045 40.8909 16.5894 40.9371 16.5904C40.9834 16.5894 41.0285 16.6045 41.0648 16.6332C41.1011 16.6619 41.1263 16.7024 41.136 16.7476C41.302 17.5229 41.6151 18.2016 41.974 18.5609C42.3329 18.9202 43.0109 19.2337 43.7853 19.3999C43.8298 19.4095 43.8696 19.434 43.8981 19.4694C43.9267 19.5048 43.9422 19.549 43.9422 19.5945C43.9422 19.6399 43.9267 19.6841 43.8981 19.7195C43.8696 19.7549 43.8298 19.7794 43.7853 19.789C43.0099 19.9552 42.3329 20.2687 41.974 20.628C41.6151 20.9873 41.302 21.666 41.136 22.4423C41.1263 22.4875 41.1011 22.528 41.0648 22.5567C41.0285 22.5854 40.9834 22.6005 40.9371 22.5995Z" fill="#001F3F"/>
<path d="M40.9371 16.7897C41.0862 17.4864 41.3874 18.2606 41.8318 18.7015C42.2762 19.1424 43.0417 19.445 43.7425 19.5972C43.0417 19.7475 42.2722 20.0491 41.8318 20.4929C41.3914 20.9368 41.0892 21.7041 40.9371 22.4057C40.787 21.7041 40.4857 20.9338 40.0424 20.4929C39.599 20.052 38.8315 19.7495 38.1316 19.5972C38.8275 19.4469 39.601 19.1454 40.0414 18.7015C40.4818 18.2577 40.784 17.4893 40.9361 16.7887M40.9361 16.3906C40.845 16.3904 40.7565 16.4215 40.6856 16.4788C40.6147 16.536 40.5655 16.6159 40.5464 16.7051C40.3883 17.4456 40.095 18.0865 39.763 18.4199C39.431 18.7533 38.7897 19.0459 38.0501 19.2051C37.9613 19.2243 37.8817 19.2734 37.8246 19.3442C37.7675 19.415 37.7363 19.5032 37.7363 19.5942C37.7363 19.6852 37.7675 19.7735 37.8246 19.8443C37.8817 19.9151 37.9613 19.9642 38.0501 19.9834C38.7897 20.1416 39.43 20.4352 39.763 20.7686C40.096 21.102 40.3883 21.7429 40.5474 22.4834C40.5665 22.5724 40.6155 22.6522 40.6862 22.7094C40.7569 22.7666 40.8451 22.7978 40.9361 22.7979C41.0272 22.7978 41.1155 22.7664 41.1862 22.709C41.257 22.6516 41.3059 22.5716 41.3248 22.4824C41.4829 21.7429 41.7761 21.101 42.1092 20.7676C42.4422 20.4342 43.0814 20.1416 43.8211 19.9834C43.9104 19.9646 43.9906 19.9157 44.0482 19.8447C44.1058 19.7738 44.1372 19.6851 44.1372 19.5937C44.1372 19.5023 44.1058 19.4137 44.0482 19.3428C43.9906 19.2718 43.9104 19.2229 43.8211 19.2041C43.0814 19.0459 42.4412 18.7533 42.1082 18.4199C41.7751 18.0865 41.4829 17.4456 41.3248 16.7051C41.3057 16.6161 41.2567 16.5363 41.186 16.4791C41.1152 16.4219 41.027 16.3906 40.9361 16.3906Z" fill="#F7F7F7"/>
<path d="M43.473 26.5137C43.4158 26.5137 43.3604 26.4938 43.3162 26.4576C43.272 26.4213 43.2416 26.3708 43.2304 26.3147C43.1071 25.7404 42.8785 25.2418 42.617 24.9801C42.3556 24.7183 41.8575 24.4894 41.2839 24.366C41.2279 24.3546 41.1777 24.3242 41.1415 24.28C41.1054 24.2357 41.0857 24.1803 41.0857 24.1232C41.0857 24.0661 41.1054 24.0107 41.1415 23.9664C41.1777 23.9222 41.2279 23.8918 41.2839 23.8804C41.8575 23.757 42.3565 23.5271 42.617 23.2663C42.8775 23.0056 43.1071 22.506 43.2304 21.9307C43.2416 21.8746 43.272 21.8241 43.3162 21.7878C43.3604 21.7516 43.4158 21.7317 43.473 21.7317C43.5301 21.7317 43.5855 21.7516 43.6298 21.7878C43.674 21.8241 43.7043 21.8746 43.7155 21.9307C43.8388 22.505 44.0675 23.0046 44.3289 23.2663C44.5904 23.5281 45.0884 23.757 45.6621 23.8794C45.7177 23.8913 45.7676 23.9219 45.8034 23.9662C45.8392 24.0105 45.8587 24.0657 45.8587 24.1227C45.8587 24.1797 45.8392 24.2349 45.8034 24.2792C45.7676 24.3235 45.7177 24.3542 45.6621 24.366C45.0874 24.4894 44.5894 24.7183 44.3279 24.9801C44.0665 25.2418 43.8378 25.7404 43.7155 26.3147C43.7041 26.3709 43.6736 26.4214 43.6292 26.4577C43.5848 26.4939 43.5293 26.5137 43.472 26.5137H43.473Z" fill="#001F3F"/>
<path d="M43.4733 21.9856C43.5876 22.5201 43.8173 23.1073 44.1533 23.4436C44.4893 23.78 45.0768 24.0109 45.6107 24.1254C45.0768 24.2398 44.4893 24.4697 44.1533 24.8061C43.8173 25.1425 43.5876 25.7307 43.4733 26.2651C43.359 25.7307 43.1293 25.1425 42.7933 24.8061C42.4573 24.4697 41.8698 24.2398 41.3359 24.1254C41.8698 24.0109 42.4573 23.781 42.7933 23.4446C43.1293 23.1083 43.359 22.5201 43.4733 21.9856ZM43.4733 21.488C43.3596 21.488 43.2493 21.527 43.1608 21.5986C43.0723 21.6701 43.011 21.7698 42.9872 21.8812C42.8758 22.4026 42.667 22.8674 42.4414 23.0923C42.2157 23.3173 41.7534 23.5272 41.2315 23.6387C41.1202 23.6625 41.0204 23.7238 40.9488 23.8124C40.8772 23.9009 40.8381 24.0114 40.8381 24.1254C40.8381 24.2393 40.8772 24.3498 40.9488 24.4384C41.0204 24.527 41.1202 24.5883 41.2315 24.612C41.7534 24.7235 42.2167 24.9325 42.4414 25.1584C42.6661 25.3843 42.8758 25.8481 42.9872 26.3696C43.011 26.4809 43.0723 26.5806 43.1608 26.6522C43.2493 26.7237 43.3596 26.7627 43.4733 26.7627C43.587 26.7627 43.6973 26.7237 43.7858 26.6522C43.8743 26.5806 43.9355 26.4809 43.9594 26.3696C44.0708 25.8471 44.2805 25.3833 44.5052 25.1574C44.7299 24.9315 45.1941 24.7235 45.7151 24.612C45.8264 24.5883 45.9262 24.527 45.9978 24.4384C46.0694 24.3498 46.1084 24.2393 46.1084 24.1254C46.1084 24.0114 46.0694 23.9009 45.9978 23.8124C45.9262 23.7238 45.8264 23.6625 45.7151 23.6387C45.1941 23.5272 44.7299 23.3173 44.5052 23.0923C44.2805 22.8674 44.0708 22.4026 43.9594 21.8812C43.9355 21.7698 43.8743 21.6701 43.7858 21.5986C43.6973 21.527 43.587 21.488 43.4733 21.488Z" fill="#F7F7F7"/>
<path d="M7.32614 57.7111C8.17613 58.2446 9.18915 58.4784 10.1823 58.4784C10.8444 58.4784 11.9797 58.4128 11.9797 57.5101C11.9797 56.691 10.6754 56.5089 10.0849 56.3795C8.42267 56.0153 6.57258 55.3007 6.57258 53.2993C6.57258 51.2203 8.36203 50.5127 10.1823 50.5127C11.4279 50.5127 12.7392 50.7466 13.791 51.4492L12.7392 52.9759C11.947 52.576 11.0694 52.3752 10.1823 52.3907C9.58581 52.3907 8.76068 52.534 8.76068 53.2943C8.76068 54.1134 9.88306 54.3144 10.4935 54.4508C12.1944 54.8339 14.1718 55.3992 14.1718 57.5051C14.1718 59.7732 12.0751 60.3514 10.1863 60.3514C8.77758 60.3514 7.41462 60.1106 6.27832 59.2338L7.32614 57.7111Z" fill="#43B7FF"/>
<path d="M15.1333 60.0966V50.7783H17.2946V54.4039H21.3516V50.7783H23.5139V60.0966H21.3516V56.2819H17.2946V60.0966H15.1333Z" fill="#43B7FF"/>
<path d="M24.6077 55.4369C24.6077 52.3637 26.5959 50.5176 29.644 50.5176C32.692 50.5176 34.6813 52.3637 34.6813 55.4369C34.6813 58.5102 32.693 60.3563 29.644 60.3563C26.5949 60.3563 24.6077 58.5102 24.6077 55.4369ZM29.6459 58.4773C31.5288 58.4773 32.4574 57.2363 32.4574 55.436C32.4574 53.6356 31.5288 52.3946 29.6459 52.3946C27.7631 52.3946 26.8355 53.6356 26.8355 55.436C26.8355 57.2363 27.764 58.4773 29.6459 58.4773Z" fill="#43B7FF"/>
<path d="M36.4379 57.7111C37.2889 58.2446 38.3009 58.4784 39.2941 58.4784C39.9562 58.4784 41.0925 58.4128 41.0925 57.5101C41.0925 56.691 39.7872 56.5089 39.1967 56.3795C37.5354 56.0153 35.6854 55.3007 35.6854 53.2993C35.6854 51.2203 37.4748 50.5127 39.2941 50.5127C40.5407 50.5127 41.852 50.7466 42.9028 51.4492L41.852 52.9759C41.0593 52.5762 40.1815 52.3753 39.2941 52.3907C38.6976 52.3907 37.8725 52.534 37.8725 53.2943C37.8725 54.1134 38.9958 54.3144 39.6062 54.4508C41.3062 54.8339 43.2845 55.3992 43.2845 57.5051C43.2845 59.7732 41.1879 60.3514 39.299 60.3514C37.8904 60.3514 36.5274 60.1106 35.3921 59.2338L36.4379 57.7111Z" fill="#43B7FF"/>
<path d="M44.2488 60.0966V50.7783H46.41V54.4039H50.4671V50.7783H52.6284V60.0966H50.4671V56.2819H46.41V60.0966H44.2488Z" fill="#43B7FF"/>
<path d="M54.0486 50.7783H56.2098V60.0966H54.0486V50.7783Z" fill="#43B7FF"/>
<path d="M12.8537 13.4434L13.5108 12.7866L12.8537 13.4434ZM11.9202 12.6642C12.0673 12.5169 12.2502 12.488 12.3974 12.6353C12.5445 12.7826 12.5157 12.9657 12.3685 13.113C12.2214 13.2603 12.0385 13.2882 11.8914 13.1419C11.7442 12.9956 11.7721 12.8105 11.9192 12.6642H11.9202ZM12.7284 11.855C12.8746 11.7077 13.0585 11.6799 13.2056 11.8262C13.3527 11.9725 13.3239 12.1576 13.1768 12.3039C13.0296 12.4502 12.8467 12.48 12.6996 12.3327C12.5525 12.1855 12.5783 12.0003 12.7274 11.855H12.7284Z" fill="#001F3F"/>
</svg>
