<svg width="138" height="24" viewBox="0 0 138 24" fill="none" xmlns="http://www.w3.org/2000/svg">
<path d="M16.6599 17.2C16.6599 11 0.677233 16.0667 0.677233 6.46667C0.677233 2.43333 4.43588 0 9.85374 0C15.2716 0 19.0303 2.43333 19.0303 6.8V7.46667H15.8473V6.8C15.8473 3.96667 13.4431 2.86667 9.85374 2.86667C6.26441 2.86667 3.86023 3.96667 3.86023 6.46667C3.86023 12.6333 19.8429 8.16667 19.8429 17.2C19.8429 21.7667 15.3393 24 9.92147 24C4.5036 24 0 21.7333 0 17.2V15.8667H3.183V17.2C3.183 20.2333 6.33213 21.1333 9.92147 21.1333C13.5108 21.1333 16.6599 20.2 16.6599 17.2Z" fill="white"/>
<path d="M40.598 23.6667V12.9333H26.7486V23.6667H23.5656V0.333333H26.7486V10.1333H40.598V0.333333H43.781V23.6667H40.598Z" fill="white"/>
<path d="M47.856 12C47.856 4.96667 52.3935 0 59.7076 0C67.0217 0 71.5592 4.96667 71.5592 12C71.5592 19.0333 67.0217 24 59.7076 24C52.3935 24 47.856 19.0333 47.856 12ZM68.2408 12C68.2408 6.83333 65.1593 2.86667 59.7076 2.86667C54.2559 2.86667 51.1745 6.83333 51.1745 12C51.1745 17.1667 54.2559 21.1333 59.7076 21.1333C65.1593 21.1333 68.2408 17.1667 68.2408 12Z" fill="white"/>
<path d="M91.4307 17.2C91.4307 11 75.448 16.0667 75.448 6.46667C75.448 2.43333 79.2066 0 84.6245 0C90.0424 0 93.801 2.43333 93.801 6.8V7.46667H90.618V6.8C90.618 3.96667 88.2138 2.86667 84.6245 2.86667C81.0352 2.86667 78.631 3.96667 78.631 6.46667C78.631 12.6333 94.6137 8.16667 94.6137 17.2C94.6137 21.7667 90.1101 24 84.6922 24C79.2744 24 74.7708 21.7333 74.7708 17.2V15.8667H77.9538V17.2C77.9538 20.2333 81.1029 21.1333 84.6922 21.1333C88.2816 21.1333 91.4307 20.2 91.4307 17.2Z" fill="white"/>
<path d="M115.369 23.6667V12.9333H101.519V23.6667H98.3364V0.333333H101.519V10.1333H115.369V0.333333H118.552V23.6667H115.369Z" fill="white"/>
<path d="M138 0.333333V3.13333H131.736V20.8667H138V23.6667H122.288V20.8667H128.553V3.13333H122.288V0.333333H138Z" fill="white"/>
</svg>
