<svg width="40" height="40" viewBox="0 0 40 40" fill="none" xmlns="http://www.w3.org/2000/svg">
<path d="M19.9999 3.40039C10.8333 3.40039 3.33325 10.8837 3.33325 20.1004C3.33325 28.4337 9.43325 35.3504 17.3999 36.6004V24.9337H13.1666V20.1004H17.3999V16.4171C17.3999 12.2337 19.8833 9.93372 23.6999 9.93372C25.5166 9.93372 27.4166 10.2504 27.4166 10.2504V14.3671H25.3166C23.2499 14.3671 22.5999 15.6504 22.5999 16.9671V20.1004H27.2333L26.4833 24.9337H22.5999V36.6004C26.5273 35.9801 30.1036 33.9762 32.6831 30.9505C35.2627 27.9247 36.6755 24.0765 36.6666 20.1004C36.6666 10.8837 29.1666 3.40039 19.9999 3.40039Z" fill="black"/>
</svg>
