<svg width="40" height="40" viewBox="0 0 40 40" fill="none" xmlns="http://www.w3.org/2000/svg">
<path d="M20.0002 3.40039C10.8335 3.40039 3.3335 10.8837 3.3335 20.1004C3.3335 28.4337 9.43349 35.3504 17.4002 36.6004V24.9337H13.1668V20.1004H17.4002V16.4171C17.4002 12.2337 19.8835 9.93372 23.7002 9.93372C25.5168 9.93372 27.4168 10.2504 27.4168 10.2504V14.3671H25.3168C23.2502 14.3671 22.6002 15.6504 22.6002 16.9671V20.1004H27.2335L26.4835 24.9337H22.6002V36.6004C26.5276 35.9801 30.1038 33.9762 32.6834 30.9505C35.2629 27.9247 36.6757 24.0765 36.6668 20.1004C36.6668 10.8837 29.1668 3.40039 20.0002 3.40039Z" fill="white"/>
</svg>
