<svg width="40" height="41" viewBox="0 0 40 41" fill="none" xmlns="http://www.w3.org/2000/svg">
<g clip-path="url(#clip0_152_145)">
<path d="M2.50012 28.8368C2.49534 29.3624 2.62879 29.8803 2.88735 30.3393C3.59635 31.5175 4.99254 32.0904 7.15228 32.0958C9.5029 32.0958 12.4971 31.404 15.8348 30.1339L16.5002 31.6634C16.5348 31.7485 16.589 31.8244 16.6584 31.885L20.5961 35.598L22.5431 40.0892C22.5955 40.2111 22.6829 40.315 22.7944 40.388C22.9059 40.4611 23.0366 40.5 23.1703 40.5C23.2619 40.4977 23.3524 40.4794 23.4375 40.446C23.5201 40.4107 23.5948 40.3596 23.6573 40.2956C23.7199 40.2316 23.7691 40.156 23.802 40.0732C23.835 39.9903 23.851 39.9018 23.8493 39.8127C23.8476 39.7236 23.8281 39.6358 23.792 39.5542L21.7959 34.9386C21.7565 34.8563 21.703 34.7813 21.6378 34.717L17.7001 31.0041L17.1001 29.6313C18.0673 29.2313 19.0544 28.7864 20.0616 28.2963C20.1424 28.2572 20.2146 28.2026 20.274 28.1357C20.3334 28.0688 20.3788 27.9909 20.4077 27.9065C20.4366 27.8221 20.4484 27.7328 20.4423 27.6439C20.4363 27.555 20.4125 27.4681 20.3725 27.3884C20.2924 27.2281 20.1525 27.1052 19.9824 27.0456C19.8123 26.9861 19.6255 26.9946 19.4617 27.0695C18.4854 27.5451 17.5146 27.9775 16.5657 28.372L14.4768 23.5403L14.1332 20.7623V20.4704C14.1245 20.3219 14.1488 20.1732 14.2044 20.035C14.26 19.8968 14.3455 19.7724 14.455 19.6705C14.5884 19.5592 14.7512 19.488 14.924 19.4652L16.8602 25.2049C16.9057 25.3384 16.9922 25.4545 17.1076 25.5369C17.223 25.6192 17.3615 25.6638 17.5037 25.6643C17.5799 25.6649 17.6556 25.6521 17.7273 25.6264C17.8977 25.5686 18.038 25.4464 18.1177 25.2864C18.1974 25.1264 18.21 24.9417 18.1527 24.7725L16.0421 18.5896C16.0421 18.5626 15.6658 17.406 15.4094 16.6169C15.3892 16.5699 15.3787 16.5194 15.3787 16.4683C15.3787 16.4172 15.3892 16.3666 15.4094 16.3197C15.4575 16.2279 15.5396 16.1582 15.6385 16.1251L16.1184 15.9792C16.1958 15.9631 16.2756 15.9631 16.353 15.9792C16.4316 15.9833 16.5081 16.0055 16.5766 16.044C16.6479 16.0789 16.7116 16.1275 16.764 16.1868C16.8164 16.2462 16.8565 16.3152 16.882 16.3899L17.3074 17.6654L19.4071 23.4916C19.4535 23.6227 19.5398 23.7363 19.6541 23.8166C19.7684 23.897 19.9051 23.9402 20.0452 23.9402C20.1232 23.9412 20.2008 23.9284 20.2743 23.9024C20.4443 23.8413 20.5832 23.7162 20.6608 23.5543C20.7383 23.3925 20.7484 23.2068 20.6888 23.0376L18.6327 17.2168L18.0491 15.2333C17.9733 14.9991 17.9909 14.745 18.0983 14.5232C18.2058 14.3014 18.3948 14.1289 18.6267 14.041C18.8585 13.9531 19.1155 13.9566 19.3449 14.0507C19.5742 14.1448 19.7585 14.3224 19.8598 14.5469L21.6214 18.768C21.6214 18.768 21.6214 18.768 21.6487 18.8112L22.9849 22.9187C23.0288 23.0551 23.1153 23.1742 23.232 23.2587C23.3486 23.3432 23.4894 23.3888 23.6339 23.3889C23.7042 23.3883 23.774 23.3773 23.8411 23.3565C24.0132 23.3019 24.1564 23.1819 24.2392 23.0228C24.322 22.8637 24.3377 22.6785 24.2829 22.508L22.8758 18.1843C22.776 17.7623 22.7031 17.3344 22.6576 16.9034C22.6734 16.8086 22.7099 16.7183 22.7645 16.639C22.8192 16.5596 22.8906 16.4931 22.974 16.444C23.0613 16.393 23.1591 16.3622 23.2602 16.3538C23.3612 16.3454 23.4628 16.3596 23.5575 16.3953C23.6031 16.4106 23.647 16.4305 23.6884 16.4548C23.8157 16.5342 23.9089 16.6574 23.9502 16.8007L26.6771 25.2103C26.7019 25.2977 26.7441 25.3792 26.8013 25.4501C26.8585 25.5209 26.9296 25.5796 27.0102 25.6227C27.0908 25.6657 27.1794 25.6922 27.2706 25.7006C27.3617 25.709 27.4537 25.6991 27.5409 25.6715C27.6282 25.6439 27.7089 25.5991 27.7783 25.5399C27.8477 25.4807 27.9044 25.4083 27.9449 25.3269C27.9854 25.2455 28.009 25.1569 28.0142 25.0663C28.0194 24.9757 28.0061 24.8849 27.9752 24.7995L27.0807 22.0053C27.1207 21.8144 27.2165 21.6393 27.3562 21.5019C27.4958 21.3645 27.6731 21.2708 27.8661 21.2325C28.112 21.1839 28.3673 21.2293 28.5808 21.3597C28.7943 21.49 28.95 21.6956 29.0168 21.9351V22.1134C29.1235 22.9141 29.3362 23.6973 29.6495 24.4428C30.0311 25.2311 30.1912 26.1067 30.1131 26.9776L28.5315 30.3123L27.8334 31.6958C27.7877 31.7778 27.7606 31.8686 27.754 31.9619C27.7474 32.0552 27.7615 32.1489 27.7952 32.2363L29.8295 38.2841C29.8866 38.4547 30.0098 38.5958 30.1719 38.6763C30.334 38.7569 30.5218 38.7704 30.6939 38.7138C30.866 38.6571 31.0084 38.5351 31.0897 38.3744C31.171 38.2138 31.1846 38.0277 31.1275 37.8571L29.175 32.0742L29.7586 30.9284L31.3947 27.491C31.4211 27.4362 31.4394 27.378 31.4493 27.3181C31.5979 26.1856 31.4182 25.0346 30.9312 23.9996C30.6641 23.357 30.4808 22.6832 30.3858 21.9945V21.7729V21.6865C30.245 21.1035 29.8833 20.5965 29.3757 20.2705C28.868 19.9445 28.2533 19.8245 27.6588 19.9354C27.2752 20.0094 26.9169 20.1786 26.6171 20.4272L25.6136 17.3249L27.0971 13.893C27.1192 13.8352 27.1356 13.7755 27.1462 13.7146L27.517 10.7907C27.517 10.7907 27.517 10.7475 27.517 10.7259V10.4016C27.5317 10.0421 27.4638 9.68405 27.3183 9.35447C27.1727 9.02488 26.9535 8.7324 26.6771 8.49914C26.4089 8.26814 26.0893 8.10332 25.7445 8.01813C25.8591 7.65602 25.9954 7.22365 26.1154 6.87234C26.1847 6.6536 26.2094 6.42334 26.1878 6.19505C26.1663 5.96676 26.099 5.74502 25.9899 5.5428C25.8848 5.33914 25.7394 5.15856 25.5623 5.01184C25.3852 4.86512 25.1801 4.75528 24.9592 4.68887L24.4792 4.53754C24.1774 4.44458 23.8573 4.42602 23.5466 4.48349C23.4863 4.03793 23.2968 3.61927 23.0012 3.27826C22.7402 2.9847 22.4077 2.76209 22.0355 2.63157C21.6632 2.50104 21.2635 2.46691 20.8742 2.53242C20.4917 2.59654 20.1312 2.75348 19.8248 2.98924C19.5183 3.225 19.2756 3.53225 19.1181 3.88358L18.4363 5.50497C18.3039 5.35295 18.1473 5.22334 17.9728 5.12124C17.7158 4.9692 17.4282 4.87491 17.1304 4.84503C16.8326 4.81514 16.5319 4.85039 16.2493 4.94829C15.9567 5.04595 15.6913 5.21027 15.4744 5.42803C15.2575 5.6458 15.0951 5.91094 15.0004 6.20217L13.7024 10.2124C13.4012 9.96285 13.0408 9.79357 12.6552 9.72059C12.0606 9.60839 11.4452 9.72783 10.9373 10.054C10.4293 10.3802 10.0679 10.888 9.9283 11.4717V11.5528V11.7798C9.83581 12.4689 9.65245 13.143 9.38291 13.7849C8.89491 14.8176 8.71695 15.9677 8.87025 17.0979C8.87928 17.1597 8.89766 17.2199 8.92479 17.2763L10.4682 20.5191L10.1137 22.7566L9.16475 27.7234C9.13076 27.8997 9.16884 28.0822 9.27061 28.2307C9.37238 28.3792 9.5295 28.4815 9.70742 28.5152C9.88533 28.5489 10.0695 28.5112 10.2193 28.4103C10.3691 28.3095 10.4724 28.1538 10.5064 27.9775L11.4554 22.9836L11.8426 20.5245C11.8659 20.3905 11.8468 20.2527 11.7881 20.1299L10.0919 16.8007C10.0145 15.9304 10.1726 15.0554 10.55 14.2659C10.8633 13.5204 11.076 12.7371 11.1827 11.9365V11.7635C11.2483 11.5234 11.4039 11.317 11.6177 11.1865C11.8315 11.0559 12.0874 11.011 12.3335 11.0609C12.5264 11.0993 12.7037 11.193 12.8434 11.3304C12.983 11.4678 13.0788 11.6429 13.1188 11.8338L12.2407 14.6388C12.2135 14.7236 12.2034 14.8129 12.211 14.9016C12.2186 14.9903 12.2438 15.0766 12.2851 15.1557C12.3264 15.2347 12.3829 15.3049 12.4516 15.3623C12.5203 15.4197 12.5996 15.4631 12.6852 15.49C12.7708 15.517 12.8609 15.527 12.9504 15.5195C13.0399 15.5119 13.127 15.487 13.2068 15.4461C13.2865 15.4052 13.3574 15.3491 13.4153 15.2811C13.4732 15.213 13.517 15.1344 13.5442 15.0496L16.2711 6.63995C16.3026 6.54659 16.3561 6.46205 16.4273 6.39341C16.4984 6.32477 16.5852 6.27402 16.6802 6.24541C16.77 6.21509 16.8653 6.204 16.9597 6.21287C17.0542 6.22173 17.1457 6.25035 17.2281 6.29683C17.3106 6.34331 17.3822 6.4066 17.4381 6.48251C17.4941 6.55843 17.5332 6.64524 17.5528 6.73723C17.5079 7.19409 17.4314 7.64734 17.3237 8.09379L16.4784 10.7475C16.4236 10.918 16.4393 11.1032 16.5221 11.2623C16.6049 11.4214 16.7481 11.5414 16.9202 11.596C16.9873 11.6169 17.0571 11.6278 17.1274 11.6284C17.2719 11.6283 17.4126 11.5827 17.5293 11.4982C17.646 11.4137 17.7325 11.2946 17.7764 11.1582L18.5781 8.65047L20.3288 4.45107C20.3958 4.30896 20.4969 4.18534 20.6234 4.0911C20.7499 3.99685 20.8978 3.93487 21.0542 3.9106C21.2159 3.88415 21.3818 3.89871 21.5363 3.95293C21.6908 4.00714 21.829 4.09925 21.9379 4.22065C22.0468 4.34206 22.1229 4.48881 22.1591 4.64723C22.1953 4.80566 22.1904 4.97059 22.145 5.12665L21.5723 7.07232L20.0289 11.2555C19.9672 11.4232 19.975 11.6084 20.0506 11.7704C20.1263 11.9324 20.2635 12.0582 20.4325 12.1202C20.507 12.1498 20.5867 12.1645 20.667 12.1635C20.807 12.1634 20.9437 12.1209 21.0587 12.0417C21.1738 11.9625 21.2616 11.8504 21.3105 11.7203L22.8594 7.51009L23.2903 6.2346C23.3415 6.08407 23.4499 5.95924 23.5924 5.88658C23.735 5.81393 23.9005 5.79918 24.0538 5.84546L24.5338 5.99139C24.6326 6.02446 24.7147 6.09419 24.7628 6.18596C24.7829 6.23202 24.7933 6.28169 24.7933 6.33188C24.7933 6.38208 24.7829 6.43174 24.7628 6.47781L24.1302 8.4505L22.5758 13.0174C22.5184 13.1873 22.5308 13.3728 22.6105 13.5336C22.6901 13.6945 22.8305 13.8178 23.0012 13.8768C23.0728 13.9028 23.1486 13.9157 23.2248 13.9146C23.366 13.9129 23.5033 13.8686 23.6183 13.7874C23.7333 13.7063 23.8206 13.5922 23.8684 13.4606L25.2973 9.33686C25.4708 9.35755 25.6341 9.42905 25.7663 9.54224C25.874 9.63973 25.9586 9.75952 26.0142 9.8931C26.0698 10.0267 26.0951 10.1708 26.0881 10.3151V10.6015L25.7336 13.3957L24.7792 15.6008C24.71 15.5389 24.6371 15.4812 24.561 15.4279C24.5143 15.3871 24.4652 15.3492 24.4138 15.3144C24.2753 15.2288 24.127 15.1598 23.972 15.109C23.8325 15.0619 23.6879 15.031 23.5412 15.0171C23.1021 14.9695 22.6594 15.0664 22.2813 15.2928C22.1073 15.3979 21.9494 15.5271 21.8123 15.6765L21.1142 14.0119C20.9561 13.6651 20.7141 13.3623 20.4097 13.1304C20.1052 12.8985 19.7478 12.7446 19.3689 12.6823H19.2326C18.6337 12.6172 18.0325 12.7846 17.5556 13.1494C17.0786 13.5143 16.7629 14.0481 16.6747 14.6388C16.3639 14.5841 16.0444 14.6026 15.7421 14.6929L15.2622 14.8442C14.8212 14.9866 14.4549 15.2962 14.2434 15.7052C14.0319 16.1143 13.9923 16.5897 14.1332 17.0277C14.2478 17.379 14.3896 17.8059 14.5041 18.1734C14.1601 18.2578 13.8407 18.4207 13.5715 18.649C13.3087 18.8805 13.101 19.1668 12.9633 19.4874C12.8257 19.8079 12.7614 20.1547 12.7752 20.5028V20.8271C12.7727 20.8505 12.7727 20.874 12.7752 20.8974L13.1461 23.8159C13.1514 23.8795 13.168 23.9417 13.1952 23.9996L15.3058 28.8638C12.1644 30.0474 9.30656 30.7176 7.19045 30.7176H7.14682C5.57065 30.7176 4.45261 30.3285 4.08175 29.6367C3.94238 29.3812 3.87105 29.0948 3.8745 28.8044C3.83632 27.2965 5.55975 24.7077 8.27577 22.1999C8.40678 22.0777 8.48373 21.9092 8.48986 21.731C8.49599 21.5528 8.4308 21.3794 8.3085 21.2487C8.18216 21.1222 8.01181 21.0484 7.83233 21.0424C7.65286 21.0363 7.47785 21.0986 7.34316 21.2163C4.11992 24.2807 2.5383 26.7668 2.50012 28.8368Z" fill="white"/>
<path d="M22.7542 25.564C22.658 25.6183 22.5824 25.7031 22.5393 25.8052C22.4963 25.9073 22.4883 26.0209 22.5166 26.1281C22.5449 26.2352 22.6078 26.3299 22.6956 26.3972C22.7833 26.4646 22.8908 26.5007 23.0013 26.5C23.0774 26.5001 23.1526 26.4827 23.221 26.449C23.2894 26.4154 23.3492 26.3665 23.3958 26.306C23.4424 26.2455 23.4746 26.1751 23.4899 26.1002C23.5052 26.0253 23.5031 25.9479 23.4839 25.8739C23.4647 25.7999 23.4288 25.7313 23.3791 25.6734C23.3293 25.6155 23.267 25.5698 23.1969 25.5399C23.1268 25.51 23.0508 25.4966 22.9748 25.5007C22.8987 25.5049 22.8246 25.5266 22.7582 25.564H22.7542Z" fill="white"/>
<path d="M33.0411 10.1506C33.0396 10.2347 33.0568 10.3183 33.0918 10.3965C33.1268 10.4747 33.1789 10.5461 33.2451 10.6065C33.3113 10.6669 33.3903 10.7152 33.4776 10.7486C33.5649 10.7821 33.6588 10.8 33.7539 10.8013C35.3358 10.8013 36.4658 11.1958 36.8541 11.8259C37.0042 12.0672 37.0782 12.3397 37.0685 12.6149C37.1206 14.1519 34.9766 16.862 31.7373 19.4082C31.5957 19.522 31.5107 19.6806 31.5009 19.8496C31.4912 20.0185 31.5574 20.184 31.6852 20.3099C31.755 20.3732 31.839 20.4227 31.9318 20.4554C32.0247 20.488 32.1242 20.5031 32.2241 20.4995C32.402 20.5003 32.5738 20.4418 32.705 20.3355C36.5701 17.2258 38.4998 14.7 38.4998 12.5842C38.5067 12.0857 38.3648 11.5944 38.0883 11.1599C37.3756 10.0943 35.9211 9.53586 33.7655 9.5C33.5723 9.50269 33.3881 9.57242 33.2526 9.69415C33.1171 9.81588 33.0411 9.97984 33.0411 10.1506Z" fill="white"/>
<path d="M29.8861 9.51244C29.7586 9.5408 29.6475 9.6188 29.5773 9.72928C29.507 9.83977 29.4834 9.9737 29.5116 10.1016C29.5356 10.2123 29.5962 10.3116 29.6835 10.3834C29.7708 10.4551 29.8797 10.4952 29.9926 10.4971C30.028 10.501 30.0637 10.501 30.099 10.4971C30.1649 10.4845 30.2276 10.4587 30.2831 10.421C30.3387 10.3833 30.386 10.3347 30.4222 10.2781C30.4583 10.2214 30.4826 10.158 30.4935 10.0916C30.5044 10.0252 30.5016 9.95733 30.4854 9.89206C30.471 9.82764 30.444 9.7667 30.4061 9.71274C30.3681 9.65878 30.3199 9.61286 30.2643 9.5776C30.2086 9.54234 30.1466 9.51843 30.0817 9.50725C30.0168 9.49607 29.9503 9.49783 29.8861 9.51244Z" fill="white"/>
<path d="M4.5 13.5C5.09334 13.5 5.67336 13.3534 6.16671 13.0787C6.66006 12.804 7.04457 12.4135 7.27164 11.9567C7.4987 11.4999 7.55811 10.9972 7.44235 10.5123C7.3266 10.0273 7.04088 9.58187 6.62132 9.23223C6.20176 8.8826 5.66721 8.6445 5.08527 8.54804C4.50333 8.45157 3.90013 8.50108 3.35195 8.6903C2.80377 8.87952 2.33524 9.19995 2.00559 9.61108C1.67595 10.0222 1.5 10.5055 1.5 11C1.5 11.663 1.81607 12.2989 2.37868 12.7678C2.94129 13.2366 3.70435 13.5 4.5 13.5ZM4.5 9.65741C4.81865 9.65741 5.13014 9.73615 5.39508 9.88368C5.66003 10.0312 5.86653 10.2409 5.98847 10.4862C6.11041 10.7315 6.14232 11.0015 6.08015 11.2619C6.01799 11.5224 5.86454 11.7616 5.63923 11.9494C5.41391 12.1371 5.12684 12.265 4.81431 12.3168C4.50179 12.3686 4.17785 12.342 3.88345 12.2404C3.58906 12.1388 3.33744 11.9667 3.16041 11.7459C2.98338 11.5251 2.88889 11.2655 2.88889 11C2.89617 10.6479 3.06913 10.3124 3.37048 10.0656C3.67184 9.81877 4.07748 9.6805 4.5 9.68056V9.65741Z" fill="white"/>
<path d="M7.5 18.5C7.5 18.1042 7.35323 17.7174 7.07826 17.3884C6.8033 17.0594 6.4125 16.803 5.95534 16.6518C5.49818 16.5006 4.99522 16.4612 4.5101 16.5388C4.02499 16.6163 3.57954 16.8073 3.23015 17.0875C2.88075 17.3676 2.64312 17.7244 2.54732 18.1127C2.45152 18.501 2.50188 18.9033 2.692 19.2686C2.88212 19.634 3.20347 19.946 3.61537 20.1652C4.02727 20.3844 4.51119 20.5009 5.0059 20.5C5.66792 20.4987 6.30229 20.2875 6.76985 19.9125C7.23742 19.5376 7.5 19.0296 7.5 18.5ZM3.96227 18.5C3.96227 18.3377 4.02244 18.179 4.13517 18.044C4.2479 17.909 4.40813 17.8038 4.5956 17.7417C4.78306 17.6796 4.98935 17.6633 5.18836 17.695C5.38737 17.7267 5.57018 17.8048 5.71366 17.9196C5.85714 18.0344 5.95485 18.1807 5.99444 18.3399C6.03402 18.4991 6.01371 18.6641 5.93606 18.8141C5.8584 18.9641 5.72691 19.0922 5.55819 19.1824C5.38948 19.2726 5.19112 19.3207 4.98821 19.3207C4.71611 19.3207 4.45516 19.2343 4.26276 19.0804C4.07036 18.9264 3.96227 18.7177 3.96227 18.5Z" fill="white"/>
<path d="M34.5 23.9944C34.4991 24.489 34.6156 24.973 34.8349 25.3848C35.0541 25.7967 35.3661 26.118 35.7315 26.3081C36.0969 26.4982 36.4992 26.5485 36.8874 26.4526C37.2757 26.3568 37.6325 26.1192 37.9126 25.7698C38.1928 25.4204 38.3837 24.9749 38.4612 24.4898C38.5388 24.0047 38.4994 23.5017 38.3482 23.0446C38.197 22.5875 37.9406 22.1967 37.6116 21.9217C37.2826 21.6468 36.8958 21.5 36.5 21.5C35.9707 21.5015 35.4634 21.7646 35.0887 22.2319C34.714 22.6992 34.5024 23.3328 34.5 23.9944ZM37.3668 23.9944C37.3677 24.2102 37.3173 24.4216 37.2219 24.6016C37.1265 24.7816 36.9904 24.922 36.831 25.0052C36.6716 25.0883 36.4961 25.1103 36.3266 25.0685C36.1572 25.0266 36.0015 24.9228 35.8794 24.7701C35.7572 24.6175 35.6742 24.4229 35.6407 24.2111C35.6072 23.9993 35.6249 23.7798 35.6914 23.5806C35.7579 23.3813 35.8702 23.2113 36.0142 23.092C36.1582 22.9728 36.3273 22.9097 36.5 22.9108C36.7295 22.9123 36.9493 23.0269 37.1116 23.2298C37.2739 23.4327 37.3656 23.7074 37.3668 23.9944Z" fill="white"/>
<path d="M30.4865 6.49993C30.8826 6.50395 31.2706 6.33143 31.6013 6.00425C31.9319 5.67706 32.1904 5.20994 32.3438 4.66213C32.4973 4.11432 32.5388 3.51049 32.4632 2.92721C32.3876 2.34394 32.1982 1.80749 31.919 1.3859C31.6399 0.964308 31.2835 0.676562 30.8952 0.55915C30.5069 0.441738 30.104 0.49995 29.7378 0.726403C29.3716 0.952857 29.0584 1.33735 28.838 1.83113C28.6177 2.32491 28.5 2.90573 28.5 3.49993C28.5012 4.29153 28.7104 5.05051 29.0823 5.61215C29.4542 6.1738 29.9587 6.4928 30.4865 6.49993ZM30.4865 2.19971C30.659 2.19971 30.8276 2.27654 30.971 2.42045C31.1144 2.56437 31.2261 2.7689 31.2919 3.00811C31.3577 3.24733 31.3747 3.51047 31.3407 3.76419C31.3067 4.0179 31.2233 4.25077 31.101 4.43329C30.9787 4.6158 30.823 4.73974 30.6537 4.78941C30.4843 4.83907 30.309 4.81222 30.1499 4.71226C29.9907 4.61229 29.855 4.44372 29.7598 4.2279C29.6646 4.01207 29.6142 3.75872 29.6151 3.49993C29.6163 3.15447 29.7086 2.82377 29.8719 2.58012C30.0352 2.33647 30.2561 2.1997 30.4865 2.19971Z" fill="white"/>
<path d="M9.5 36.9947C9.49896 37.6874 9.70348 38.3648 10.0877 38.9412C10.4719 39.5176 11.0184 39.967 11.6582 40.2326C12.2979 40.4981 13.0021 40.5679 13.6815 40.433C14.3609 40.2981 14.9851 39.9647 15.4749 39.4749C15.9647 38.9851 16.2981 38.3609 16.433 37.6815C16.5679 37.0021 16.4981 36.2979 16.2326 35.6582C15.967 35.0184 15.5176 34.4719 14.9412 34.0877C14.3648 33.7035 13.6874 33.499 12.9947 33.5C12.0683 33.5014 11.1802 33.87 10.5251 34.5251C9.87004 35.1802 9.50139 36.0683 9.5 36.9947ZM15.1809 36.9947C15.182 37.4274 15.0546 37.8506 14.8151 38.2108C14.5755 38.571 14.2344 38.852 13.835 39.0183C13.4356 39.1845 12.9959 39.2286 12.5715 39.1448C12.1471 39.0611 11.757 38.8533 11.4507 38.5477C11.1445 38.2422 10.9357 37.8527 10.851 37.4284C10.7662 37.0042 10.8092 36.5644 10.9745 36.1646C11.1398 35.7648 11.42 35.4231 11.7796 35.1826C12.1393 34.9422 12.5621 34.8138 12.9947 34.8138C13.5737 34.8138 14.1289 35.0434 14.5388 35.4523C14.9486 35.8611 15.1795 36.4158 15.1809 36.9947Z" fill="white"/>
</g>
<defs>
<clipPath id="clip0_152_145">
<rect width="40" height="40" fill="white" transform="translate(0 0.5)"/>
</clipPath>
</defs>
</svg>
