<svg width="40" height="41" viewBox="0 0 40 41" fill="none" xmlns="http://www.w3.org/2000/svg">
<g clip-path="url(#clip0_49_194)">
<path d="M35.4683 12.5668L37.2749 11.8939C37.6879 11.7401 38.1475 11.9501 38.3012 12.3632C38.455 12.7761 38.245 13.2357 37.8319 13.3895L36.0253 14.0624C35.9335 14.0966 35.8395 14.1128 35.7469 14.1128C35.4231 14.1128 35.1186 13.9143 34.999 13.5931C34.8452 13.1801 35.0553 12.7206 35.4683 12.5668ZM33.267 11.7311C33.3745 11.7803 33.4872 11.8035 33.5983 11.8035C33.9009 11.8035 34.1905 11.6304 34.3244 11.3371L35.126 9.58365C35.3092 9.18287 35.1329 8.70937 34.7321 8.52613C34.3313 8.343 33.8578 8.51945 33.6746 8.92013L32.873 10.6736C32.6899 11.0744 32.8661 11.5479 33.267 11.7311ZM25.9197 9.79122C23.9549 8.37811 21.828 7.12459 19.5625 6.04563L16.3106 13.2078C16.1285 13.6089 15.6554 13.7867 15.2541 13.6044C14.8529 13.4223 14.6752 12.9493 14.8574 12.548L18.1092 5.386C15.8084 4.39222 13.4564 3.6148 11.1048 3.06589C12.218 8.19468 12.5175 13.6461 11.8181 16.6737C11.719 17.1031 11.2913 17.3707 10.861 17.2716C10.4315 17.1724 10.1639 16.7439 10.2631 16.3146C10.9464 13.3563 10.5843 7.82152 9.38789 2.7057C7.44951 2.34492 5.5206 2.14173 3.6291 2.10273L3.50173 2.38322C5.29119 4.86004 6.83108 9.40919 7.66127 14.7182C8.27003 18.6111 8.54154 23.5035 7.61629 26.2308C7.63025 26.2389 7.64402 26.2469 7.65798 26.2549C7.66277 26.2576 7.66756 26.2604 7.67234 26.2632C8.15372 26.5405 8.65176 26.7963 9.15977 27.0269C9.68893 27.267 10.2307 27.4808 10.7773 27.6657C11.7554 25.9933 13.9588 23.8635 16.9727 21.6975C20.3261 19.2875 24.0893 17.24 27.2971 16.0799C27.7119 15.9297 28.1691 16.1445 28.319 16.5589C28.4688 16.9733 28.2544 17.4307 27.8399 17.5807C24.8098 18.6766 21.0954 20.7 17.9041 22.9936C14.7592 25.2538 12.5223 27.4748 11.9207 28.9348C11.765 29.3126 11.3492 29.5117 10.9571 29.3962C10.9374 29.3903 10.9176 29.3845 10.8979 29.3786L6.52915 39.0003C6.24706 39.6216 5.73995 40.0959 5.10107 40.3358C4.80881 40.4455 4.50488 40.5002 4.20185 40.5002C3.84236 40.5002 3.48377 40.4233 3.14663 40.2702C1.86428 39.688 1.29463 38.1706 1.87675 36.8879L6.24566 27.2664C6.22821 27.2554 6.21075 27.2444 6.1934 27.2334C5.84847 27.0144 5.72469 26.5702 5.90662 26.2044C6.78729 24.4332 6.85891 19.9163 6.08457 14.9648C5.26186 9.70305 3.68057 5.11479 1.95804 2.99058C1.76763 2.75568 1.72623 2.43329 1.85131 2.15789L2.39174 0.968212C2.52112 0.682836 2.80529 0.5 3.1182 0.5C3.1195 0.5 3.12069 0.5 3.12209 0.5C5.43313 0.511172 7.80022 0.759043 10.1752 1.23224C10.1919 1.23503 10.2084 1.23843 10.2248 1.24222C13.34 1.86713 16.4674 2.87976 19.4959 4.25467C19.4968 4.25507 19.4977 4.25547 19.4986 4.25597C19.4995 4.25637 19.5004 4.25677 19.5012 4.25717C23.2266 5.94897 26.6096 8.09064 29.5564 10.6224C29.8907 10.9096 29.9288 11.4134 29.6416 11.7477C29.3544 12.0819 28.8505 12.1201 28.5164 11.8328C28.1256 11.4971 27.727 11.1685 27.3203 10.8471C22.681 13.3136 18.2759 16.6836 16.4986 19.1452C16.2406 19.5026 15.7421 19.5831 15.3845 19.325C15.0272 19.0671 14.9467 18.5683 15.2046 18.211C17.0236 15.6919 21.3255 12.3288 25.9197 9.79122ZM3.32996 37.5474C3.11152 38.0288 3.32517 38.5983 3.80645 38.8169C4.03956 38.9228 4.3001 38.9315 4.53999 38.8415C4.77968 38.7515 4.9701 38.5735 5.07593 38.3404L9.3831 28.8541C9.08596 28.7369 8.79131 28.6121 8.50014 28.48C8.20918 28.3479 7.92111 28.2082 7.63713 28.0616L3.32996 37.5474ZM30.5033 17.7745C30.1026 17.5912 29.629 17.7675 29.4457 18.1683L28.6438 19.9216C28.4605 20.3224 28.6368 20.7959 29.0376 20.9792C29.1452 21.0284 29.258 21.0518 29.369 21.0518C29.6716 21.0518 29.9611 20.8787 30.0951 20.5854L30.897 18.8321C31.0804 18.4312 30.9041 17.9578 30.5033 17.7745ZM37.7178 16.5424L35.9643 15.7406C35.5634 15.5576 35.0899 15.7337 34.9067 16.1345C34.7235 16.5354 34.8999 17.0088 35.3006 17.1921L37.0542 17.9939C37.1617 18.0431 37.2744 18.0663 37.3854 18.0663C37.6881 18.0663 37.9776 17.8932 38.1116 17.5999C38.2949 17.199 38.1186 16.7255 37.7178 16.5424ZM34.0713 18.3357C33.9174 17.9227 33.458 17.7126 33.045 17.8664C32.6319 18.0202 32.4218 18.4797 32.5757 18.8927L33.2484 20.6994C33.368 21.0206 33.6726 21.2191 33.9963 21.2191C34.0889 21.2191 34.183 21.203 34.2747 21.1688C34.6878 21.0149 34.8979 20.5555 34.744 20.1425L34.0713 18.3357ZM32.8256 17.2786C32.5193 17.3927 32.2009 17.4495 31.8835 17.4495C31.5019 17.4495 31.1214 17.3674 30.764 17.204C30.1093 16.9047 29.6104 16.3681 29.3591 15.6933C29.1077 15.0187 29.1342 14.2865 29.4335 13.6317C29.733 12.9768 30.2695 12.4779 30.9443 12.2266C31.619 11.9753 32.3511 12.0018 33.006 12.3013C33.6608 12.6007 34.1596 13.1372 34.411 13.812C34.6624 14.4868 34.6358 15.219 34.3364 15.8737C34.0369 16.5284 33.5004 17.0274 32.8256 17.2786ZM32.8851 15.21C33.0073 14.943 33.018 14.6443 32.9155 14.369C32.813 14.0937 32.6095 13.8749 32.3423 13.7527C32.1966 13.686 32.0413 13.6525 31.8857 13.6525C31.7561 13.6525 31.6263 13.6757 31.5013 13.7222C31.226 13.8247 31.0071 14.0283 30.885 14.2953C30.7629 14.5623 30.7522 14.8611 30.8546 15.1364C30.9572 15.4118 31.1606 15.6306 31.4277 15.7527C31.6948 15.8748 31.9933 15.8857 32.2687 15.783C32.544 15.6805 32.763 15.477 32.8851 15.21Z" fill="white"/>
</g>
<defs>
<clipPath id="clip0_49_194">
<rect width="40" height="40" fill="white" transform="translate(0 0.5)"/>
</clipPath>
</defs>
</svg>
