<svg width="40" height="41" viewBox="0 0 40 41" fill="none" xmlns="http://www.w3.org/2000/svg">
<g clip-path="url(#clip0_152_56)">
<path d="M17.4814 0.638947C19.1313 0.532986 33.7067 -0.291221 38.1465 3.77762C39.0987 4.64987 39.581 5.6875 39.5811 6.86258C39.5811 8.14372 39.0247 9.2445 37.9707 10.0471C35.1049 12.2325 29.1966 11.6699 27.3418 11.2141H27.3389L27.333 11.2122C27.33 11.2107 27.3264 11.2108 27.3232 11.2093H27.3203L26.0342 10.8606C24.3431 10.3791 22.2443 9.77989 21.0107 10.4973C19.8853 11.1576 19.1737 12.1332 18.9541 13.3206C18.6791 14.8107 19.1801 16.5159 20.293 17.8772C20.7041 18.3786 20.6205 19.1112 20.1104 19.511C19.5973 19.9138 18.8495 19.8324 18.4414 19.3313C16.9034 17.452 16.2227 15.0499 16.6152 12.9085C16.9614 11.0399 18.0607 9.51451 19.7949 8.50125C21.9126 7.26257 24.6795 8.05216 26.6953 8.62918L27.8926 8.95145C27.8956 8.95293 27.8984 8.95438 27.8984 8.95438C27.9014 8.95572 27.9043 8.95419 27.9072 8.95535C29.8611 9.43997 34.6692 9.61726 36.5117 8.21024C36.9908 7.84695 37.207 7.42878 37.207 6.86258C37.207 6.34321 36.9903 5.90246 36.5234 5.47684C33.5026 2.71037 22.8528 2.62041 17.6406 2.96121C10.3143 3.438 9.49027 5.80083 9.38867 7.96902C10.1582 8.43533 10.6806 9.33124 10.6807 10.3567C10.6806 11.3909 10.1422 12.2815 9.36621 12.7434V33.9632C10.3988 34.3795 11.1256 35.3284 11.2617 36.4534H13.0205C14.8598 36.4534 16.3592 37.9203 16.3594 39.7239C16.3594 40.1524 16.0041 40.4991 15.5684 40.4993H0.791016C0.687132 40.4995 0.584306 40.4795 0.488281 40.4407C0.392192 40.4018 0.303987 40.3448 0.230469 40.2727C0.157109 40.2008 0.0992142 40.1148 0.0595703 40.0208C0.0199566 39.9267 -0.000184167 39.8257 0 39.7239C0.000227634 37.9204 1.49931 36.4534 3.3418 36.4534H5.09766C5.23381 35.3283 5.95751 34.3795 6.99316 33.9632V12.7415C6.21417 12.2781 5.68174 11.3894 5.68164 10.3567C5.68168 9.30757 6.22694 8.39437 7.02441 7.93777C7.24178 4.38973 8.95731 1.19625 17.4814 0.638947ZM8.17871 36.0579C7.75514 36.0579 7.4151 36.3945 7.41504 36.8079C7.41488 37.3286 7.05716 37.7542 6.57812 37.9026C6.46372 37.9617 6.34313 38.0042 6.20703 38.0042H3.34082C2.67958 38.0044 2.20989 38.4204 1.91016 38.9485H14.4453C14.1456 38.4203 13.6786 38.0043 13.0205 38.0042H10.1387C9.99957 38.0041 9.8761 37.9598 9.76172 37.8977C9.28889 37.7449 8.94254 37.3226 8.94238 36.8079C8.94232 36.3945 8.59909 36.0579 8.17871 36.0579ZM21.7988 17.0852C24.7759 16.1418 28.093 15.745 31.4131 15.9495L32.1709 15.9944C33.7073 16.0807 35.2933 16.1703 36.8174 16.6458C38.1405 17.0561 39.6929 17.6941 39.9619 18.9964C39.9836 19.0947 39.999 19.2147 39.999 19.3509C39.999 19.8052 39.8258 20.4385 39.0811 21.0608C38.6483 21.4211 38.2309 21.5799 37.8477 21.6829C38.0949 22.8399 38.2119 24.5245 38.2119 26.2659C38.2119 28.083 38.085 29.9311 37.8594 31.2425C37.8409 31.3513 37.8254 31.4618 37.8037 31.5706C37.7667 31.7417 37.7323 31.9038 37.6953 32.0491C37.6706 32.1414 37.6154 32.2174 37.5723 32.2991C36.6046 35.0703 33.9518 37.0802 30.8018 37.0804C29.392 37.0804 28.0836 36.6664 26.9736 35.9759C26.9337 35.9579 26.8935 35.9536 26.8564 35.9309C26.3402 35.5918 24.7446 35.5394 23.335 35.4925C21.6717 35.4394 19.7857 35.3759 18.1318 34.9065C18.1074 34.9004 18.089 34.8825 18.0645 34.8733C13.8182 33.7284 11.3818 31.216 11.3818 27.969C11.382 24.8662 13.3113 21.7858 16.6748 19.5188C16.6932 19.5085 16.7119 19.5068 16.7305 19.4964C16.7366 19.4903 16.7428 19.4813 16.752 19.4768C16.7921 19.4527 16.8416 19.451 16.8848 19.4329C16.9775 19.3935 17.0673 19.3524 17.1631 19.3372C17.2311 19.3266 17.2962 19.3352 17.3643 19.3352C17.4444 19.3366 17.5251 19.3328 17.6055 19.3509C17.6872 19.3676 17.758 19.4055 17.835 19.4388C17.8969 19.4659 17.9589 19.4844 18.0146 19.5237C18.0949 19.5751 18.1599 19.6488 18.2246 19.7229C18.2586 19.7561 18.2993 19.7793 18.3271 19.8186C18.3332 19.8276 18.3337 19.838 18.3398 19.847C18.3522 19.8621 18.3674 19.8719 18.3799 19.8899C18.6518 20.3426 19.1309 20.635 19.6006 20.635C20.0211 20.635 20.4173 20.4717 20.6924 20.1839C20.8531 20.0144 21.0414 19.7233 21.0107 19.3011L20.8965 18.6614C20.8904 18.6418 20.8965 18.6175 20.8965 18.5979L20.8926 18.596C20.686 17.9844 21.0263 17.3275 21.6475 17.1263C21.6753 17.1171 21.7066 17.1125 21.7344 17.1018C21.7463 17.1002 21.7525 17.0898 21.7646 17.0882C21.777 17.0853 21.7865 17.0868 21.7988 17.0852ZM30.8018 25.3216C28.1464 25.3216 25.9887 27.4375 25.9883 30.0374C25.9883 32.6377 28.1461 34.7542 30.8018 34.7542C33.0769 34.754 34.9809 33.1894 35.4756 31.1028C35.4972 31.0061 35.5128 30.9028 35.5312 30.7971C35.5745 30.5488 35.6124 30.2963 35.6123 30.0374C35.6119 27.4376 33.454 25.3218 30.8018 25.3216ZM14 29.2386C14.7513 31.2633 17.185 32.2357 18.7539 32.6507C18.7754 32.6568 18.7909 32.672 18.8125 32.678C20.179 33.0625 21.8981 33.1183 23.416 33.1682C23.7497 33.1802 24.0834 33.193 24.417 33.2073C23.9196 32.2504 23.6134 31.1844 23.6133 30.0384C23.6133 29.7645 23.6633 29.5034 23.6943 29.2386H14ZM31.2617 18.2727C28.5444 18.1031 25.8425 18.3963 23.3662 19.0716L23.3818 19.1429C23.4499 20.1227 23.1097 21.0559 22.4268 21.7737C21.7064 22.528 20.6764 22.9612 19.6006 22.9612C18.7164 22.9612 17.8758 22.6125 17.1973 22.0432C15.1013 23.697 13.8857 25.7024 13.7773 27.6878H24.0557C25.048 24.9634 27.6825 22.9954 30.8018 22.9954C32.7523 22.9955 34.5171 23.7673 35.8154 25.0091C35.7659 23.5401 35.63 22.2615 35.4043 21.6692C35.3148 21.4363 35.2715 21.2135 35.2715 21.0032C35.2715 20.7504 35.3371 20.5118 35.4639 20.2952C35.8194 19.6946 36.4559 19.5931 36.833 19.5325C37.0709 19.4931 37.2072 19.4265 37.3525 19.3538C37.1145 19.2267 36.7183 19.0542 36.0537 18.8499C34.8573 18.4759 33.4881 18.398 32.0352 18.3177L31.2617 18.2727Z" fill="white"/>
</g>
<defs>
<clipPath id="clip0_152_56">
<rect width="40" height="40" fill="white" transform="translate(0 0.5)"/>
</clipPath>
</defs>
</svg>
