<svg width="40" height="41" viewBox="0 0 40 41" fill="none" xmlns="http://www.w3.org/2000/svg">
<g clip-path="url(#clip0_152_75)">
<path d="M38.1132 0.5H33.5849C33.1683 0.5 32.8302 0.838113 32.8302 1.25472H10.1887C10.1887 0.838113 9.85057 0.5 9.43397 0.5H5.66038H1.8868C1.47019 0.5 1.13208 0.838113 1.13208 1.25472V37.863C1.13208 39.3174 2.31699 40.5 3.77359 40.5C4.51321 40.5 5.18038 40.1928 5.66038 39.703C6.14038 40.1928 6.80755 40.5 7.54717 40.5C9.00378 40.5 10.1887 39.3174 10.1887 37.863V35.217H32.8302V37.4811C32.8302 39.146 34.1842 40.5 35.8491 40.5C37.514 40.5 38.8679 39.146 38.8679 37.4811V1.25472C38.8679 0.838113 38.5298 0.5 38.1132 0.5ZM10.1887 5.78302H32.8302V29.934H10.1887V5.78302ZM32.8302 2.76415V4.27358H10.1887V2.76415H32.8302ZM3.77359 38.9906C3.14944 38.9906 2.64151 38.4849 2.64151 37.863V2.00943H4.90567V37.863C4.90567 38.4849 4.39774 38.9906 3.77359 38.9906ZM8.67925 37.863C8.67925 38.4849 8.17133 38.9906 7.54717 38.9906C6.92302 38.9906 6.4151 38.4849 6.4151 37.863V2.00943H8.67925V2.76415V5.0283V30.6887V34.4623V37.863ZM10.1887 33.7075V31.4434H32.8302V33.7075H10.1887ZM37.3585 37.4811C37.3585 38.3136 36.6815 38.9906 35.8491 38.9906C35.0166 38.9906 34.3396 38.3136 34.3396 37.4811V34.4623V30.6887V5.0283V2.76415V2.00943H37.3585V37.4811Z" fill="white"/>
<path d="M12.4529 11.8208C12.6461 11.8208 12.8393 11.7468 12.9865 11.5996L15.2506 9.33549C15.5457 9.04039 15.5457 8.56341 15.2506 8.26832C14.9555 7.97322 14.4786 7.97322 14.1835 8.26832L11.9193 10.5325C11.6242 10.8276 11.6242 11.3045 11.9193 11.5996C12.0665 11.7468 12.2597 11.8208 12.4529 11.8208Z" fill="white"/>
<path d="M17.9571 8.26832L11.9193 14.3061C11.6242 14.6011 11.6242 15.0781 11.9193 15.3732C12.0665 15.5204 12.2597 15.5944 12.4529 15.5944C12.6461 15.5944 12.8393 15.5204 12.9865 15.3732L19.0242 9.33549C19.3193 9.04039 19.3193 8.56341 19.0242 8.26832C18.7291 7.97322 18.2521 7.97322 17.9571 8.26832Z" fill="white"/>
</g>
<defs>
<clipPath id="clip0_152_75">
<rect width="40" height="40" fill="white" transform="translate(0 0.5)"/>
</clipPath>
</defs>
</svg>
