<svg width="40" height="41" viewBox="0 0 40 41" fill="none" xmlns="http://www.w3.org/2000/svg">
<path d="M15.8838 29.1807H11.0708C10.7737 29.1807 10.5327 29.4217 10.5327 29.7187V34.0792C10.5327 34.2638 10.6274 34.4354 10.7834 34.5339L13.1902 36.0545C13.2779 36.1099 13.378 36.1379 13.4775 36.1379C13.5771 36.1379 13.6772 36.1099 13.7649 36.0545L16.1716 34.5339C16.3277 34.4354 16.4224 34.2638 16.4224 34.0792V29.7187C16.4218 29.4217 16.1808 29.1807 15.8838 29.1807ZM15.3457 33.7828L13.477 34.9633L11.6083 33.7828V30.2568H15.3452V33.7828H15.3457ZM12.2733 15.7881C12.7711 20.2649 16.3164 22.2826 18.7264 22.2826C21.1364 22.2826 24.6812 20.2649 25.1794 15.7881C25.8967 15.4104 26.8636 14.4715 26.8146 12.8029C26.805 12.4806 26.7764 11.5013 26.0581 11.2296C25.3516 10.9622 24.6387 11.6703 24.5026 11.815C24.2997 12.0324 24.311 12.373 24.5278 12.5759C24.7447 12.7787 25.0858 12.768 25.2887 12.5506C25.3828 12.45 25.548 12.3224 25.6578 12.2702C25.6879 12.3515 25.7299 12.5188 25.739 12.8352C25.7848 14.3908 24.6478 14.8578 24.5348 14.9003L22.4396 15.3593C19.9747 15.094 17.4781 15.094 15.0137 15.3593L12.9147 14.8998C12.756 14.8374 11.6691 14.3542 11.7137 12.8358C11.7229 12.5194 11.7649 12.352 11.795 12.2708C11.8983 12.3203 12.0565 12.4381 12.1641 12.5511C12.367 12.768 12.7076 12.7787 12.9249 12.5764C13.1418 12.3736 13.1531 12.033 12.9502 11.8156C12.8146 11.6708 12.1044 10.9606 11.3947 11.2302C10.6764 11.5013 10.6473 12.4812 10.6381 12.8035C10.5886 14.472 11.5561 15.411 12.2733 15.7881ZM13.4087 16.1088L14.4837 16.3445L14.8006 19.2172C14.1485 18.4527 13.6298 17.433 13.4087 16.1088ZM22.6511 19.2167L22.968 16.344L24.043 16.1083C23.8219 17.433 23.3032 18.4527 22.6511 19.2167ZM21.8816 16.3811L21.4539 20.2541C21.4528 20.2633 21.4566 20.2713 21.456 20.2799C20.4687 20.9391 19.4243 21.2065 18.7259 21.2065C18.0285 21.2065 16.9868 20.9396 16.0011 20.2832L15.5706 16.3811C17.6664 16.1842 19.7848 16.1842 21.8816 16.3811ZM15.8397 23.4874L14.2782 24.2202L14.141 21.715C14.1248 21.4179 13.8671 21.1898 13.5744 21.207C13.2779 21.2232 13.0503 21.4771 13.0665 21.7736L13.095 22.2966C11.2505 22.9627 9.57762 24.1718 8.318 25.723C8.24428 25.291 8.08771 24.8772 7.74872 24.5361C7.61152 24.3978 7.44471 24.2853 7.26177 24.1874V20.125C7.41189 20.1675 7.57708 20.2412 7.72505 20.3714C8.08555 20.6873 8.26796 21.2485 8.26796 22.04V23.7446C8.26796 24.0416 8.50901 24.2826 8.80603 24.2826C9.10304 24.2826 9.34409 24.0416 9.34409 23.7446V22.0405C9.34409 20.9256 9.03793 20.0921 8.43422 19.5632C8.04251 19.2199 7.60344 19.0806 7.25854 19.0273C7.24993 18.7378 7.01534 18.5048 6.7237 18.5048H0.538068C0.241055 18.5048 0 18.7459 0 19.0429V20.6776C0 20.9746 0.241055 21.2156 0.538068 21.2156H2.2007C2.27603 22.0098 2.54076 23.482 3.4544 24.3025C3.34625 24.3752 3.2381 24.4473 3.14878 24.5371C2.50632 25.1833 2.51117 26.09 2.51547 26.8896L2.51601 30.6238C2.51601 31.6084 3.00511 32.479 3.75195 33.0112C3.44095 33.4793 3.13425 33.8737 3.13586 33.8737C1.50874 35.6504 1.68415 39.0817 1.69222 39.2269C1.70837 39.5116 1.94404 39.7343 2.22976 39.7343H9.29513C9.58031 39.7343 9.81598 39.5116 9.83266 39.2269C9.84073 39.0817 10.0161 35.6499 8.40032 33.8866C8.3944 33.8796 7.89185 33.2883 7.51735 32.7007C8.05112 32.1696 8.38149 31.4346 8.38149 30.6238L8.38203 27.4814C9.4926 25.6574 11.2107 24.2084 13.1568 23.4271L13.2472 25.0763C13.2569 25.2549 13.3549 25.4169 13.5082 25.5089C13.5932 25.5595 13.6885 25.5853 13.7842 25.5853C13.8623 25.5853 13.9403 25.5686 14.0129 25.5342L16.297 24.4623C16.566 24.3359 16.6817 24.0157 16.5553 23.7467C16.4288 23.4766 16.1082 23.362 15.8397 23.4874ZM1.07614 19.5804H1.68415V20.1395H1.07614V19.5804ZM5.053 23.8188C3.28275 23.8188 3.2467 20.7066 3.2467 20.6754C3.24455 20.3978 3.03094 20.1772 2.76029 20.1497V19.5799H6.18563V23.8193L5.45332 23.8188C5.45171 23.8188 5.45009 23.8188 5.44848 23.8188C5.44687 23.8188 5.44579 23.8188 5.44418 23.8188H5.053ZM3.59161 26.8836C3.58838 26.2363 3.58461 25.6246 3.91176 25.2958C4.17541 25.0305 4.69088 24.896 5.44256 24.8955H5.45547C6.20716 24.8966 6.72263 25.0305 6.98574 25.2958C7.2042 25.5159 7.27415 25.8629 7.29621 26.2616H6.0452C5.74818 26.2616 5.50713 26.5027 5.50713 26.7997C5.50713 27.0967 5.74818 27.3378 6.0452 27.3378H7.30589V28.3176H6.0452C5.74818 28.3176 5.50713 28.5587 5.50713 28.8557C5.50713 29.1527 5.74818 29.3937 6.0452 29.3937H7.30535V30.302H6.0452C5.74818 30.302 5.50713 30.543 5.50713 30.8401C5.50713 31.1371 5.74818 31.3781 6.0452 31.3781H7.14124C6.85122 32.026 6.20339 32.4796 5.44902 32.4796C4.42561 32.4796 3.59268 31.6466 3.59268 30.6232L3.59161 26.8836ZM2.7619 38.6582C2.76567 38.4467 2.77858 38.1755 2.80441 37.8775H8.72047C8.7463 38.175 8.75868 38.4467 8.76244 38.6582H2.7619ZM7.59483 34.5995C8.11891 35.1715 8.40678 36.0028 8.56766 36.8008H2.95991C3.12402 35.9969 3.41889 35.1559 3.95642 34.5683C3.97633 34.543 4.36911 34.0405 4.73984 33.4658C4.96745 33.5223 5.20366 33.5562 5.44848 33.5562C5.86817 33.5562 6.26634 33.4664 6.62739 33.3066C7.04278 33.9517 7.55825 34.5576 7.59483 34.5995ZM11.407 9.5148V10.0776C11.407 10.3746 11.6481 10.6157 11.9451 10.6157C12.2421 10.6157 12.4832 10.3746 12.4832 10.0776V9.34047C14.0947 8.70447 16.4278 8.0986 18.7259 8.0986C21.0239 8.0986 23.357 8.70447 24.9685 9.34047V10.0776C24.9685 10.3746 25.2096 10.6157 25.5066 10.6157C25.8036 10.6157 26.0447 10.3746 26.0447 10.0776V9.5148C26.1878 9.41472 26.275 9.25168 26.275 9.07627V3.31948C26.275 3.10694 26.1501 2.91432 25.9553 2.82769C24.2572 2.07224 21.4662 1.26514 18.7259 1.26514C15.9849 1.26514 13.194 2.07224 11.4964 2.82769C11.3021 2.91432 11.1768 3.10694 11.1768 3.31948V9.07574C11.1768 9.25115 11.2645 9.41418 11.407 9.5148ZM12.2529 3.67461C13.8666 3.00686 16.3185 2.34181 18.7259 2.34181C21.1332 2.34181 23.5846 3.00686 25.1988 3.67461V8.27294C23.4937 7.62295 21.0907 7.02193 18.7259 7.02193C16.3605 7.02193 13.9586 7.62295 12.2529 8.27294V3.67461ZM39.4619 18.224H25.8865C25.5895 18.224 25.3484 18.465 25.3484 18.762V20.6577C25.3484 20.9547 25.5895 21.1957 25.8865 21.1957H27.1429L32.3734 24.917V29.9888C31.4716 30.0319 30.806 30.2546 30.3745 30.6889C29.732 31.3351 29.7369 32.2417 29.7412 33.0413L29.7417 36.7755C29.7417 38.3924 31.0573 39.708 32.6742 39.708C34.2911 39.708 35.6067 38.3924 35.6067 36.7755L35.6072 33.0413C35.6115 32.2417 35.6164 31.3351 34.9739 30.6889C34.6199 30.3327 34.1157 30.1142 33.4496 30.0222V24.9019C35.7277 23.122 37.682 21.61 38.2174 21.1957H39.4619C39.7589 21.1957 40 20.9547 40 20.6577V18.762C40 18.4645 39.7589 18.224 39.4619 18.224ZM34.5311 33.0359L34.5305 36.776C34.5305 37.7994 33.6976 38.6324 32.6742 38.6324C31.9198 38.6324 31.272 38.1782 30.982 37.5309H32.078C32.375 37.5309 32.6161 37.2899 32.6161 36.9929C32.6161 36.6959 32.375 36.4548 32.078 36.4548H30.8179V35.5465H32.078C32.375 35.5465 32.6161 35.3055 32.6161 35.0085C32.6161 34.7115 32.375 34.4704 32.078 34.4704H30.8173V33.4906H32.078C32.375 33.4906 32.6161 33.2495 32.6161 32.9525C32.6161 32.6555 32.375 32.4144 32.078 32.4144H30.827C30.8491 32.0157 30.919 31.6687 31.1375 31.4486C31.4017 31.1828 31.9193 31.0478 32.6742 31.0478C33.4291 31.0478 33.9467 31.1823 34.2109 31.4486C34.5381 31.7768 34.5348 32.3881 34.5311 33.0359ZM38.9239 20.1196H38.0339C37.915 20.1196 37.7993 20.1589 37.7051 20.2315C37.7051 20.2315 35.5319 21.9097 32.8964 23.9679L27.6266 20.2186C27.5356 20.154 27.4264 20.1191 27.3145 20.1191H26.4245V19.3001H38.9239V20.1196ZM24.2255 23.3475L24.1308 25.0757C24.1211 25.2544 24.0231 25.4163 23.8698 25.5083C23.7848 25.5589 23.6895 25.5847 23.5938 25.5847C23.5157 25.5847 23.4377 25.5681 23.3651 25.5336L21.081 24.4618C20.8119 24.3354 20.6963 24.0152 20.8227 23.7462C20.9486 23.4766 21.2698 23.3614 21.5383 23.4879L23.0998 24.2207L23.237 21.7155C23.2532 21.4185 23.5071 21.1914 23.8036 21.2076C24.1001 21.2237 24.3277 21.4777 24.3115 21.7741L24.2868 22.2234C27.4108 23.2797 30.0059 25.8527 31.0621 28.945C31.1585 29.2259 31.0078 29.532 30.7269 29.6283C30.6694 29.6482 30.6107 29.6574 30.5531 29.6574C30.3293 29.6574 30.1205 29.5164 30.0441 29.2931C29.1251 26.6044 26.9115 24.3547 24.2255 23.3475ZM19.2639 25.9221V39.0725C19.2639 39.3695 19.0229 39.6106 18.7259 39.6106C18.4288 39.6106 18.1878 39.3695 18.1878 39.0725V25.9221C18.1878 25.6251 18.4288 25.384 18.7259 25.384C19.0229 25.384 19.2639 25.6251 19.2639 25.9221ZM26.2174 16.6684H39.131C39.428 16.6684 39.6691 16.9095 39.6691 17.2065C39.6691 17.5035 39.428 17.7446 39.131 17.7446H26.2174C25.9204 17.7446 25.6793 17.5035 25.6793 17.2065C25.6793 16.9095 25.9198 16.6684 26.2174 16.6684Z" fill="white"/>
</svg>
