<svg width="40" height="40" viewBox="0 0 40 40" fill="none" xmlns="http://www.w3.org/2000/svg">
<path d="M13.7 5H26.3C31.1 5 35 8.9 35 13.7V26.3C35 28.6074 34.0834 30.8203 32.4518 32.4518C30.8203 34.0834 28.6074 35 26.3 35H13.7C8.9 35 5 31.1 5 26.3V13.7C5 11.3926 5.9166 9.17974 7.54817 7.54817C9.17974 5.9166 11.3926 5 13.7 5ZM13.4 8C11.9678 8 10.5943 8.56893 9.58162 9.58162C8.56893 10.5943 8 11.9678 8 13.4V26.6C8 29.585 10.415 32 13.4 32H26.6C28.0322 32 29.4057 31.4311 30.4184 30.4184C31.4311 29.4057 32 28.0322 32 26.6V13.4C32 10.415 29.585 8 26.6 8H13.4ZM27.875 10.25C28.3723 10.25 28.8492 10.4475 29.2008 10.7992C29.5525 11.1508 29.75 11.6277 29.75 12.125C29.75 12.6223 29.5525 13.0992 29.2008 13.4508C28.8492 13.8025 28.3723 14 27.875 14C27.3777 14 26.9008 13.8025 26.5492 13.4508C26.1975 13.0992 26 12.6223 26 12.125C26 11.6277 26.1975 11.1508 26.5492 10.7992C26.9008 10.4475 27.3777 10.25 27.875 10.25ZM20 12.5C21.9891 12.5 23.8968 13.2902 25.3033 14.6967C26.7098 16.1032 27.5 18.0109 27.5 20C27.5 21.9891 26.7098 23.8968 25.3033 25.3033C23.8968 26.7098 21.9891 27.5 20 27.5C18.0109 27.5 16.1032 26.7098 14.6967 25.3033C13.2902 23.8968 12.5 21.9891 12.5 20C12.5 18.0109 13.2902 16.1032 14.6967 14.6967C16.1032 13.2902 18.0109 12.5 20 12.5ZM20 15.5C18.8065 15.5 17.6619 15.9741 16.818 16.818C15.9741 17.6619 15.5 18.8065 15.5 20C15.5 21.1935 15.9741 22.3381 16.818 23.182C17.6619 24.0259 18.8065 24.5 20 24.5C21.1935 24.5 22.3381 24.0259 23.182 23.182C24.0259 22.3381 24.5 21.1935 24.5 20C24.5 18.8065 24.0259 17.6619 23.182 16.818C22.3381 15.9741 21.1935 15.5 20 15.5Z" fill="white"/>
</svg>
