<svg width="40" height="40" viewBox="0 0 40 40" fill="none" xmlns="http://www.w3.org/2000/svg">
<path d="M34.8749 10.5996C29.6499 2.49962 18.9499 0.0996175 10.6749 5.12462C2.59988 10.1496 -0.000119209 21.0996 5.22488 29.1746L5.64988 29.8246L3.89988 36.3746L10.4499 34.6246L11.0999 35.0496C13.9249 36.5746 16.9999 37.4496 20.0499 37.4496C23.3249 37.4496 26.5999 36.5746 29.4249 34.8246C37.4999 29.5746 39.8999 18.8496 34.8749 10.5496V10.5996ZM30.2999 27.4496C29.4249 28.7496 28.3249 29.6246 26.7999 29.8496C25.9249 29.8496 24.8249 30.2746 20.4749 28.5496C16.7749 26.7996 13.6999 23.9496 11.5249 20.6746C10.2249 19.1496 9.54988 17.1746 9.34988 15.1996C9.34988 13.4496 9.99988 11.9246 11.0999 10.8246C11.5249 10.3996 11.9749 10.1746 12.3999 10.1746H13.4999C13.9249 10.1746 14.3749 10.1746 14.5999 11.0496C15.0249 12.1496 16.1249 14.7746 16.1249 14.9996C16.3499 15.2246 16.2499 16.8996 15.2499 17.8496C14.6999 18.4746 14.5999 18.4996 14.8249 18.9496C15.6999 20.2496 16.7999 21.5746 17.8749 22.6746C19.1749 23.7746 20.4999 24.6496 22.0249 25.2996C22.4499 25.5246 22.8999 25.5246 23.1249 25.0746C23.3499 24.6496 24.4249 23.5496 24.8749 23.0996C25.2999 22.6746 25.5249 22.6746 25.9749 22.8746L29.4749 24.6246C29.8999 24.8496 30.3499 25.0496 30.5749 25.2746C30.7999 25.9246 30.7999 26.7996 30.3499 27.4496H30.2999Z" fill="black"/>
</svg>
